<mxfile host="app.diagrams.net" agent="Mozilla/5.0 (Windows NT 10.0; Win64; x64) AppleWebKit/537.36 (KHTML, like Gecko) Chrome/128.0.0.0 Safari/537.36" version="24.7.14" pages="3">
  <diagram name="Normalisasi 1NF" id="M561_a8JVI3sBM8sSo2-">
    <mxGraphModel dx="3322" dy="2121" grid="1" gridSize="10" guides="1" tooltips="1" connect="1" arrows="1" fold="1" page="1" pageScale="1" pageWidth="1169" pageHeight="827" math="0" shadow="0">
      <root>
        <mxCell id="0" />
        <mxCell id="1" parent="0" />
        <mxCell id="42EpbFQZqqC_yjip7hL5-3" value="&lt;img alt=&quot;&quot; src=&quot;data:image/png;base64,iVBORw0KGgoAAAANSUhEUgAABdMAAAJSCAMAAAAf/az9AAAAAXNSR0IArs4c6QAAAARnQU1BAACxjwv8YQUAAADtUExURQAAAAAAAAAAAAAAAAAAAAAAAAAAAAAAAAAAAAAAAAAAAAAAAAAAAAAAAAAAAAAAAAAAAAAAAAAAAAAAAAAAAAAAAAAAAAAAAAAAAAAAAAAAAAAAAAAAAAAAAAAAAAAAAAAAAAAAAAAAAAAAAAAAAAAAAAAAAAAAAAAAAAAAAAAAAAAAAAcHBw0ODhQVFhobHBsbHSEiJCgpKy8wMjU3OTw+QUNFSEpMT1BSVldZXV1gZF5gZWRnbGptcnF0eXd7gH6CiIWJj4uPlouQlpKWnZmdpKCkrKars62yurS5wbrAyMHGz8jN187U3tXb5SvKc6MAAAArdFJOUwAIEBgfICcoLjA1ODxASExQWGBkaHB4gIeIj5CXn6evsLe/wMfP19/n7/c/N09OAAAACXBIWXMAABcRAAAXEQHKJvM/AABhT0lEQVR4Xu2dCV/sNpenqaqhaZq3aKABMzTLUC9blZJM3uRmm4Qst29Icpd8/48z50iyLJclLwUHCfg/v+Sicnk9kh7LsuxaAwAAAAAAAAAAAAAAAABAN//45/8pQDL+9z//aVMgLf/85/+2KSAEQizOP//5v9bWDhQAAIAXwT/W1nbV/70Dyfh/StkUSItS/8+mgBAIsThK/fva2lS9+Rsk471SNgXSotR7mwJCIMTiKLUOpycGTs8FCEcchFgcOD09cHouQDjiIMTiwOnpgdNzAcIRByEWB05PD5yeCxCOOAixOHB6euD0XIBwxEGIxYHT0wOn5wKEIw5CLA6cnh44PRcgHHEQYnHg9PTA6bkA4YiDEIsDp6cHTs8FCEcchFgcOD09cHouQDjiIMTiwOnpgdNzAcIRByEWB05PD5yeCxCOOAixOHB6euD0XIBwxEGIxYHT0wOn5wKEIw5CLA6cnh44PRcgHHEQYnHg9PTA6bkA4YiDEIsDp6cHTs8FCEcchFicqNM/vr27+82mmU8/3919tOm+3N/dvbPJv//+4+7uF5sENYJOf0fh8uP9293dXzb5+Pzl582Hu7ufh+b0CyEkHCrEP3+waYYy5g+bHMantz+9efPmh1/+tJ9fJ6Ih7s9Lzoyo03/m3yr95pP9RHGnj77j+/BGVSv+63OlvrBpUCPk9N85/F96BZ0+3tnk43NHa7fJvz/+iz7InT6yJiCcvzgjPvfi8aVS39vkED7+yCvSfFU1dF4fgiHuj58Zv9tpL4eo08nHRNV6e6DTtSleXvgehZDT2bJKfWc/EfTpaZz+LaV/sunXRkA4v3E+qK/sJ2I14fz5hV6PZcgK3tWv15470RB/bT8R0k7/vZYZP9ipfXgWmdHh9C9cS/GBTmdToOslTNzpqro0pA9P4nROfmvTr46ocNRb+3FF4fz+Ga3js+/ufv/57mte3YBLflpyaL3LmXiIq6sXYae/W8qMARelzyIz2pzOZ7Mf7ccHOp1NMeR8+KqIOZ3iX9mVPj+F099R6quqx+2VEREOZcQXLiarCOf957SW720L7z1d+N+bZB9oyVfgdApxdS0k6/S/WOkvOTPanP6GGteflQ31BzmdTfHm1Zqii5jT+ZaG666i9BM4neXzRaPSvRoiwuGMcBeZqwiHKoKfe398M+ACnhZ9BU7nEP9qP8s6/RO3zV90ZrQ6/U86hLJ1/RCn8/3RL/Pvh0pFzOkfqEHhGi/1gvjIlE7/9C86i0sPOciYiHD+8hvqKwhHX/zY9GBo2Vfg9IeGuD8vPzNana57wW3X35LT/3x79+bNT7+2X7ZYp/P9Uf+29vvfvnvz5o0/fOkXHjb54cc3b77/k8fVuRM2LVuOsltaqDa08re7O7euP934ychm/v7rB9rzt9XU5MSc/vdP9E/Zy0hJ5/QPb+kQ3vzoDW787e5nqhDvKYLf/mpqBqd/euefSJtLOUqnc35XPcex7Xz6hTbzjrOGN1ryix0BubyQPwjz3huk9t7lc+xwPvz85s0PvwZ2V4yIcN7/6kW/LpwP93ffvfn+5/vWFguHtTnW5Z0XGIqlK/Qf7igc3/6iCyiVclr22zvCVbXmJmlN9OED1chvzGI6/eNSGf/jt5/efHP3rjpCs9hvtNQTeqotxOW1kB/ij++oIL/5wRvc6B+tiUHzaJtLOfiaqZkZbyOZ8b7KDFbOwMyI7Z5sZrQ7nRvqtku35vQPHBjN121Vzjqdi3Q15OWPb8yS5PlSCSQ19feflJOcl7/Qv9XcpLXP6E9joY+ULEdncNqVga/sHsc28/F7OzWf5mjU6Z+o8fIvu/P02Vrlr+/0ATA/lkWJYvf+E58CiC/4LMzLE/9yhSa0lMM6nS+AqyEvse181Jn/5d9/0L/VbW8efEkhbS5EJ3RXumhx10T6kfaO/8Y28/fP3O9J2e+dZKSJCYdLVdkLSftWOd2GnILeMqaLy12gZUgrcmdp3opJfbozh61jy0uW6GARgU1Shty7cPHUX01alwTLJ1vu1Wcuz3ixTyb6dsoT0BbickRGFeIP35fRUN+VUvSP9nPvaL90RxtaqmRYZvxUroiCxuW9pCzRHZkR3j0/M9zJ4xEzo93pXkPdd/rvfMvH8lnLacWsg4VR1X0/MmUYOc4fyF/E939/0P+WUKy/Cy5E6y5LOV9NlUPfeWneo9hm3tMKDbrwZwHtl01VGMvy+c2GjlLmMD668kqU91DpqP6qTmJ/farStkwHl3KYrXEWV19Ft0ORJ77Utq5qB5VSyoPAQj9QqK2rtaLKKk1Lc79e9+Gon+1UeaLC4SJmhwvQvpXF870eNmEp77o1eUvfepeeJbSigEb0yOl/cWWgCHNpLjFj/YKbZB+UllCf3XNeGD5zHvmLwk3r1VPLDmRezJ5QzYSnYFCIuVHjKMta/Wj/rI72c3u0waVKBmWGXvW/2HaUGXoYveUb/XU9M2zjq3P3/v77Ty8zvvMWe6TM6HA6N9RNYfKczsnPfvz9w/vf9P56558l9Do4r7whLxSwr36lBt3HXylUtu3DdZ3m/fru7ltqJlJl/sweqFYzXSgFFuI2pS0duhrYveD84O9jm6G8e/Pu/i1tLXS2TkPc6Vw6bS8jfTaFjqL/r7v7T39/eseFwp6Y6LConfPVu/vf6I/6hkJYpm01CS7l0Fvj+6PekJfYdug0/6+7u++oVHMWlJdpn0jNtKnAQlxa7LUuZ05ZiDgz+Aq27XDe3v/OJczdpxcnKhyvoU77Zp2u3fHtb399/P2Oq70bIrYMl89AJyWtqKkRjtYdZcLH377iJssf9zzhp3tCRzq8SSrNtH9fvrXlmmJWpsuTJN8o+fw3OoD37I1qMcrML+7ufnjCqjAoxFRIvvyR+zXesT2tis3RUuHQR/g1l/X60QaXKhmSGawuLzMoE2iCzgx9DFVm/MSZYZfv3D29nMkMbrfYNhvNYDLj+wdnRofTdQh0jeTDsdWRdvlzGxbuBSt3tQmvg++P+kNe/vy2FAqfL0wTjOt3ddXPZ9Lyeps2z04LLMRnTRsOyg8XUSqy+ljimzF5zEW72auWBtovm6owTtexMDtPCXOIH9+UV0Z8D9UGX4dAV1X9cJeXtqfH4FIO3tonylZ/yEt8O+XTxdyK9DONTquBhT5RAbAS1E0Auya6BPmc1xPfjGkIeJcq8sSFw40LcxS0b/ZweNfs8XPHYfTUw/W5sV69oqZGqMCXmWNXR9+UEYptkjdgGnyfdNJL2+3Scl/Y0y9fN3mLfRW9vJChPcQmz6sQf/OLLWvsQftUkt5t/b092iptVx1aqsSbzWfVzLAL8SNlflRbd4/aQmVmUI2wbTY97+NkRpfTuaLpE0fldK6+TofcoVTaswGt4yvSSmzIC51FTR5q2bpnJlkCZSgpVF4bn3EL0YrtFRAvXR4BLbt8qV7fjD1b8Ckh2rB6YlqcXjVe6LMrdCVUPe1JnYpkWdf5NOunG42SaikHb43OcrEhL/XtfG0rjL6iomtSDS1ddoVZ3EL0le0Z49aMMble1tZbR/BwuFo2S6cQceFUvZBOONxbWJZT3XLwnvqtwdXVJn2CGqGw2AMvoW+cRiKb5A3Yjet3Snhps+gHinx5YuQabTbBiz35cLRBIfZgEZqUd7TckG4erUe1VAlVqN6ZQVtaqnP+Njgz3G5yZhifdO4eZ4CfGaaR+YiZ0eV03VDnfamczpbWCYbbalE30jq4Z/CzyH1UOklVVv6iOh6q27YHlje65Bm3EJ1NTBuUsoBLg16CF1guM7XNuDwi0zfKTSLanO56Gf19LyFl8w1kgoqka1HQnH66Uc6rpRy8NS5UjXkNte14ucmF35wyuOtl6VzqFrJNeF3uv6H59BK8wPLNz+DhcGlYOlvI0SIcrrR6n5xwuOvJ9vgRVJ4+t8llaImqwlTQ5KZGqvNaCX3jsiWySco6d6KluPppswVuprszMZ1jTXA5xwPdELIMCrEHO9EcQuxoaYZGDamWKhmSGWSOpVY+fRPPDHP26Ny95cww0n/EzOh0Op+NeBcqp7uSoqGGhTFmAF4HL1eO3ViCQma2y7L1KjhfhJmTV6A+u4V4xfpygYR+T1miV0ByagigthkXNlqqedBpaHO6a6jT50aJdYWvViT9/KH08mWLt5SDt8YZHTn71rbjncFZzOYSiOewl6clbiG+C6p3iArzL2U7lM5V7qZJSfhwaN+WmlpytAjHtSJp34xwqHB6NZ5OSMsRKKElemuEV1PebTPQBKeRyCapnjkHUovLT5vs8ToRdEDNaYMWq6Y+FYNC7FG11mJHS0stXdOH2nhUysUyQ8/auXu1zKCWqVnJI2ZGp9N1rxFdKvBJVB8Ot/08AZMxo80ovQ72RSOH+H7DPdXvgGwJCoX5gjLARZqoLeT6ZT6ny3naC70NMqC/QMtmnOnT0+p0jjsfGv2pHdkfdGTc8WU++UUylmbqSzn01viSoHn2jW+HoCCaJkeVK5r6QlQMdLmlv39S0ddCoQpRawrEN1OZXp424fBlMh8j7ZspztQy82oh2yPSdUUzho4geJB8M1N94b95lj47jUQ2SYF1NSyYpuz5modVa8icrnnvZn0yBoXY8icVDtaQWTJ2tO1LlXB8bdJntcyw/SoMXxHoFlHn7tUyg+Z49Mzodjp3aFLFZSHqw1kqvKSD5St5h16HfhbXBYJ5S0dlMZtYdjpf1XBO+GfZxkIsFD7jUqv+W/YRh4ZX5PatfTPPxell44X+dYXuj2r8rZ3JL5KxdHMph9kad7PVylX7dgjOIL6bwk3xMoubC3ET5qNu1X+p84CzlFbkBiS0byYXp+vw0IUh7ZsJUtmmMPANmuXOJAtVg+Z6Ywdpxrmp710xpg+u9kQ26fsgmDbrrDA11p/1yRgUYuKvH/RdGI2ZKXa07UuV0BKPlxnerQ/uXNA3Fjt3Tzwzup2uq+QvujLqw+Ej9i7RK/k0MevgMXLeRX3traMB2RJ8KcBdBuRde3UTWEi3K0l2tAO/aKlQ4Gnfyuv0rs08G6fbXkb61xa6j3ySdJhpfpEMp0NLOczWls6+Xdth6DO3VaiI2DsgoYVs0aETAJVaKtGU5oOyzZ+uzVQ1TJ5W4XArkq4xaN9M5aMvvFi4+tGEilqteFsiB/lJD4yjjdgbTJR066V0aJMxjbg0r8/H3SN1sz4Zg0L89ydu0TjMTLGjbV+qRDIzdFdw5+7x+nzMSh4xM3o4nTs0vvjkChC3zbyg0Kk11D+lseuoXdT/yYb//nce4em0yuuuxZla2JS1PADGNOZCC5X35WgjNJn+pdhQXtp2TOdmqvUkh/bLpiq8U+V3lPyzKkEf+c79N2/v6XRWFT6/SAbTwaUcdmvvKaLu7Nu5HYYW5G5xir65DA1vhibS1zQvFSDTm0hXYvZs3bmZwO6K0SocPcbrHe+bqXxUwrxayO007/LVhzsAGnc1Wg7yk36woCyelHIaiWySwu8mB9N0Ig0MZPBnfTIGhVg/O/f1b/d0lNU1e+xo25cqedTM8ILKW6Iy3GP3xDOjj9PZyb84py+NpSDjtN4j5b/+RT21yspR0HGn81CJv7iLyrb+QgvZ25z6il5n1df6JGAHVnZu5vk4nRsv31aFjoNpD7IqfH6RDKaDSznKrfFX5dm3czuMKRVcJMys4c3Q6j/XZqccobL/+ScuGbZidW4msLtitAuHeyG/qiofFTGvc5uLrG3MLcMXJdVIBwcdpKvFywf5jr60tcwliMgmfR8E0yQ5r+u3xJ/1yRgUYhawPfgBTg8uVZIsM9wWxDOjj9N1Q50778zhkGK88wyddbwuvjrlOvhxFrswN67LqMSdznL+ib83QQsuZGL/kU44HAvevY/GF0z3Zp6P07X2+AkTozmKZZn5VeFz3xLBdHAph9saRaWcr3M7Gsrib7jrxVaT8Ga4QXn/UV976azldNl/17mZwO6K0S4cLYt3rvJV4+4ZyiRzsysAHaMbkVyhQ2dpHORHkpupV/SNu/MQ2aTbJSKYpjm9IRol/qxPxqAQU6ut1OYApweXckQzwwm6kRnce9wjM8ynzt0Tz4xeTuc6SXtiLUkWr4ahcRvePYC0jFsHv4beXNRzkPUlChGWreYHpb7k2m/uOgUXMlcMb2m/9EwUst/oys2eAbs384ycrhvqpeZYh2WxqgqfL8FQOryUw21N3+nX2dy9HQ3fbPlALRZT5GObocV+opKimwJU436iRo0dLNW9mcDuitEhHN2KdJWPg+aKPn/ltdrqcP2pPU/ynusPlcByxJjuLbBpC9UAUz5pxS4WkU36Pgim2ZRldajwZ30yBoWYDFAe+wCnB5dydGcGFeelzHCyeEBmuN0Tz4xeTud6SF6xTucsKG/4cgtcj02j0Nw1XotarYOX0Rf1fOljL7W56Wm+bjqdA0+Gtq3u4EIEx4EkpDOI3P497YwdetC9mWfkdP2B4q9L0ydK224L/YJEk6RjdGUtlA4v5ai29kd59u3ejoZvTnMnqOlKjm2GBPUV/a9rABUFfiOJLUHdm+GiY5PidAhHf6ADNpVPj7wrGzccQVNRP/36c6NfneqP+perHZ9+0pHgRUxxNK9c00kHhchsxp0wicgmKXDOB8E0t/qbZxx/1idjUIhpt+2x61cWmpliR0uFpmWpinpmfPzeZYbNv0Bm0CJm1WSYVTPD7Z54ZvRzOiuSsL0ZfPViel8+cNKeq2hP7RsPHN46qIjqA+E6bKbplzuaZNPpfDFAlFnj5vQWIn7W2W/OKdz5Tv/ZE3D3Zp6T07kRQBjNUcjNM7d/USkpZ/IlGEwHl3J4W+NWhD77dm7HwLWmauNENsODdz+3mcO5QDlVeq9zMzk5nfeWsJWPL13tGzo46U0trzxKdP35/Dctkvc/UW5y04O7C7/iVdvX++kvv7QvhuZ7/KaHgHzyuduB8CZjGqnSnKvfmeXo2voHk/JnfTIGhZjbkvobLRo7U+xoqdC0LFURzwzWl58ZX9jWxp9UXk1m0PZWzQy3e8uZYTLcn/WB9HO6VrJzOtdQ9cW3d3dv6FjLPeGOkGUxe+vQF/UcF3bA17/f8wOFtHRAtgYeol5NDC1EcEaUtZ970L2vOjfznJyuS0F5oPzNl2/vf/uOaj0dmp5Wk2AwHVzK4W+NmzGcp53bMejC4CZGNsPdaC7euqK5nsjOzWTldO5qdEXenGrf/HT3He2ve/k3O8G15Up+o0MjPntDVYLRQuFIf/Hd3Xf0HdcvnnRPzvjh1/t3P9A020HAm/zih7s3ug82vEnfB+G0eXrm+7vff73jQJta4M/6ZAwKMX/zxa/3b7+nw6aImJliR0sRaVnKYykzTKewzozvlzPjix9pPV5mcEXkzNA3Qmxm3N1xx2hnZrjdW86M5lE9kJ5O5wfHndP/vtefNO4N+9wx2uJ0fa7j1zl/5OPXfE0xM18HnK5PEW6QZGghRrfm7ZL6ksk1kDo386ycbjxoNUdRNXzxBx2kmUYJJ8FwOrSUw98aXxrqpkvXdiy6LLh6E9mMbs3bJXljXvnt2kxWTtdV3+189dMwyr2UXB9Pc6yaV2WoXJtuwffmYpT4kbasD9J7m7x797mdy1wKxTbp4hlJf9DVw1K9QbDKhqdiWIhNW5L4nG+cmpliR0uFpmUpn3pmGCX0ywx7xWzV4WeGa3h37550ZkSdTrXQH6PIYaiuOj7aJ/8+/8b1S/FOfVn2Lllq6+BTHJf1Dz/qZT/7iU8DZrt8Pljug+ScrfQRWIhhPZQDk7hkeJ0/XZuhq6XoGMwnJuR0ipb/eO57knr5Ix6fftatXvXtR6rudiYqkPY6MZYOLeWobe2eAseh6dqOhfOgypHIZnTjy9YLfe1bncK7NvO2HglRAgLgPa9Klen0L9s2dDlp6/jXVW8LP39lc8rn0y/6vEx86xbXK+PrSR5MZg6y/NWnz350G7UGKG9hBTZJM7grg1j6798pqJovf7QHWfv6qQiEmIcBxkL8qznaN+95b81MsSP0bjwElqrx6JnhXhjda/eEMyPq9L//aNzpqfHh/pf7erQ+3C8pnaqvv44P5rX+FNH7tz/red+XS3xcWhXBGV2dMEILMR/uq08f7+u/Ctmxmdq+JSXk9L//8g9zmft3d/pQqgMqY8tE042lHLWtfeKnNTTt2zGwomv9x8HNfPIz535pB9o3U8twWUKNuvf1UtXg/u3bskVt+LR0dA4qrET9YO7tT/p+dFuhYnv3e32uv+7v3vo71tjkH97HWJr483das7dzS18/CYND/AftNC/y0fwQBdHnaJtLLdE/M+6r9gfziJlRE9bS1w8g7vTE0FkzMIrzRRJ0+rOBLnjKO9PPnpBwwKOCEIuTq9P59mfzyYCXybN2Ot/+DDwW9zyBcMRBiMXJ1ek8OChyCfvieNZO59sY7smL5w6EIw5CLE6mTuf7y7ncwhTnWTv96+ou9fMHwhEHIRYnU6fzHdLqVvIL5zk7ne+QNkfuPVcgHHEQYnEydfo3qvnTZi+W5+x0fi/Ao92wTw6EIw5CLE6mTn93d/dyTNHFs26n390FBmM/VyAccRBicXK9R/qaeNb96S8KCEcchFgcOD09cHouQDjiIMTiwOnpgdNzAcIRByEWB05PD5yeCxCOOAixOHB6euD0XIBwxEGIxYHT0wOn5wKEIw5CLA6cnh44PRcgHHEQYnHg9PTA6bkA4YiDEIsDp6cHTs8FCEcchFgcOD09cHouQDjiIMTiwOnpgdNzAcIRByEWB05PD5yeCxCOOAixOHB6euD0XIBwxEGIxYHT0wOn5wKEIw5CLA6cnh44PRcgHHEQYnHg9PTA6bkA4YiDEIsDp6cHTs8FCEcchFgcOD09cHouQDjiIMTiwOnpgdNzAcIRByEWB05PD5yeCxCOOAixOHB6euD0XIBwxEGIxYHT0wOn5wKEIw5CLA6cnh44PRcgHHEQYnHg9PTA6bkA4YiDEIsDp6cHTs8FCEcchFgcOD09cHouQDjiIMTiwOnpgdNzAcIRByEWB05PD5yeCxCOOAixOHB6euD0XIBwxEGIxYHT0wOn5wKEIw5CLA6cnh44PRcgHHEQYnHg9PTA6bkA4YiDEIsDp6cHTs8FCEcchFgcOD09cHouQDjiIMTiwOnpgdNzAcIRByEWB05PD5yeCxCOOAixOHB6euD0XIBwxEGIxYHT0wOn5wKEIw5CLA6cnh44PRcgHHEQYnHg9PTA6bkA4YiDEIsDp6cHTs8FCEcchFgcOD09cHouQDjiIMTiwOnpgdNzAcIRByEWB05PD5yeCxCOOAixOHB6euD0XIBwxEGIxYHT0wOn5wKEIw5CLA6cnh44PRcgHHEQYnHg9PTA6bkA4YiDEIsDp6cHTs8FCEcchFgcOD09cHouQDjiIMTiwOnpgdNzAcIRByEWB05PD5yeCxCOOAixOHB6euD0XIBwxEGIxYHT0wOn5wKEIw5CLA6cnh44PRcgHHEQYnHg9PTA6bkA4YiDEIsDp6cHTs8FCEcchFgcOD09cHouQDjiIMTiwOnpgdNzAcIRByEWB05PD5yeCxCOOAixOHB6euD0XIBwxEGIxYHT0wOn5wKEIw5CLA6cnh44PRcgHHEQYnHg9PTA6bkA4YiDEIsDp6cHTs8FCEcchFgcOD09cHouQDjiIMTiwOnpgdNzAcIRByEWB05PD5yeCxCOOAixOHB6euD0XIBwxEGIxYHT0wOn5wKEIw5CLA6cnh44PRcgHHEQYnG00/9TfXUPkvE/StkUSItS/2NTQAiEWByl/m1t7UABAAB4EfwDTgcAgBcDOX2qZmsgGetK2RRIi+6JBJIgxOLYe6RwekLg9FyAcMRBiMWB09MDp+cChCMOQiwOnJ4eOD0XIBxxEGJx4PT0wOm5AOGIgxCLA6enB07PBQhHHIRYHDg9PXB6LkA44iDE4sDp6YHTcwHCEQchFgdOTw+cngsQjjgIsThwenrg9FyAcMRBiMWB09MDp+cChCMOQiwOnJ4eOD0XIBxxEGJx4PT0wOm5AOGIgxCLA6enB07PBQhHHIRYHDg9PXB6LkA44iDE4sDp6YHTcwHCEQchFgdOTw+cngsQjjgIsThwenoe1+l7Sl3aJBgIhCPO44V4qtStTT4jzpU6tkkpupy+Od2yKSBFi9PH0+nQKlAodWNSh7NzZN4g4sKZTKdjm6wITgSthEI8mlaYErs3u9jWiRao8SJ/fTua7hV7D69F1fHMlDo1KTHanT65oLhN7QcgRNzpm/zjgvv2Q0+c07doWVx/DSLm9FGxUKqwH0qCE0EHgRBPbrmYl3Bxn9Bf2zCJ8wRO36RWNbM43bBTVsM7ntROP5jzAcHpwsSdfsTxv7YfeuKcTtem6kqnQE8iTt+65nxY0ndwIugiEOJdDqSDI0o1Qs3Nl3HknX6sd0iz2LTTVsI7nrRO37g0hwOnCxN3umnADLv0c06fUDPySKdAT4JOH+sz65K+gxNBN4EQs5wvZyU7NGVEBf/MfBlH3OkHnMGzojjjs/eendgbOgQ+FI13PCmdPjokJSj0vTwBUadvK3VLuTDsnkrVnz7BvZCBhJy+zSdWbt74+g5OBD2IOH154lZ3Z4e00zeo6t2YGrR1oXZ1YgC0d955wB1PSqdzO+Ryk6/f4XRhok4/VerkfOjd/crpYCgB4fAtjds9rqGevoMTQR96Or0H0k7fp/W7RtHmyCZ6Q0uH2vYpnX7KhVb3ycLpwsScPqKGwhZ3NnYOAfCB01cn4JYduk4a6xrq6Ts4EfTh+TidWlSdffot0N7l5vS9Ix6mBac/ATGnU6G9WRvNa4VgNJ3wn/Xtg0a2bOzucJZ5Tp8+7G796yPglvUzfXesru/gRNCHnk7fcvck9WDe8U6hC7dmfWeHK0Hd6ZvTw93ayFK/8K9Pq2b2aLq332sIKtk3eIXc3JLe+cm0XiVp7/y+l/J4fKdXu9hY50OIOt0Apz8BMadf6Huc1FxYVCXyWqnJ2gbf5lBqpvVuGJ/x7Q91ve05neY9NCnQj4BwLBTbpr6DE0Er/ZxOBfzEpbbWdngAnhHs6EQPxrvZ9Z2+daon6vJv8Qs/XVYtbHLTVB110d3cOaHZGqNdAlvSezg501MvzWqpRjvO7Tz2eCqn75S3ygLrfBBwenoiTudBrVv6Rql3wr+hDNvT+iZuXZFb1wPrmKJyOs0L5QwCThenn9Mr81Fqagc78sexHYxHOuT+bj2Ltm9JOdLLL/yV/athk90jhHn9F0vd6KEt8R5uWyurudYyPxpSotVaOx6T2uZbsHzYoXU+CDg9PRGnH9iCd0tFS09guKhSnsyKcx55UQ4/n3CRuj0tuBHCRcVMhdOHAqeLs4LTD7hIzxZcSUZUptX8rOBWMZd5PQu3im+Oimmh7WjbOUGnr9MyV7vT6e6F65+Mw2OB1ay2Y8Et0R4e0axXxRnv3C2fBcbnM5qqrnlspn5ksHY8OrVJu6KVHlzng4DT0xNx+pUtlfzkg+tl4WKjbjjnx1xq7AhYnsWUFN1eh9NXBE4XZwWnL9Ril3TOhZ6HjOu287ppr+tZxmpmOy22yK12HHjQ6dQcujYt760eYxN5MbUovG7u4Ja4Hqo5W3LEp5oDM5ULR3V5XTseTq1Tk0wrPbzOBwGnpyfs9A0Kve6d4wu5sqBop5uyoNsRpgHPjzTYHBxzUx1OXxE4XZwVnK4WZT+zLuhGyqNT+sLWm2phatwECr9z+vmw3g3zHOncs3poS7yHc9O+5v0rO3VoatzpE9o9W42D63wQcHp6wk4/csWD2t7uTYteWeASaqZzz58r9tS8h9NXBE4XJ+J0h7kTWne6CzIX9LKBPeLWi007uL/cpGJOH9QQ3jXd5L7VS6ot0R5apWsrl2Nl6Puo08dcSZtFrVrng4DT0xN2Op3y7Y177kAvb9P7RZWsb+xNTZZq1BXuka4OnC5Ol9NNVag58MrdqKQSX40Bc6b2YF+Z9QedTnXDtfl7MT6mi2HiutHPXW2p2ldz0rFJSsWcPqJ/Akr31vkg9Erg9KQEne7lL/fChG7nc+eiTlAR0SOmNHD66sSrFIUaTn8MAiFm5br3vZh2dN2BJkWcuT5GYgWn8+P+i2NvCHA3kyPdVm+8wyvs9B03lQtHzOl0uRBSul/nH4JeCZyelKDTqe3tOlwunabDRZUmVu+EgdNXJ16lKNRw+mMQCDGX46WJEadTRaj6TmpO3ypmMzue16wqWFF0itYxsK3Oy9h7q4Et+XvoWZlSEafzSaI6JqaxzgehVwKnJyXkdP34qP2ZgCnfDrK5ECyq9LdyC5y+OvEqVQtxSXAiaCUQ4v5OpxJdffCcvmuFqDGrCjt9bUrTietBUtvmDhjzMwaBLQ12+in9730XWueD0CuB05MScnr1cITFPoYGp0sSr1K1EJcEJ4JWAiF+sNM5pS7PiqLg1o9ZVcTpVLPMKMhBvzTDK9AVMLQlfw/7OZ1/BKTqzAmt80HolcDpSQk5nW/q15iba79gUa0VdTh9deJVikINpz8GgRBzOV6aGHE6fQj0p/OT1hdmBZVTqfDbZpA3p0H/etGgH7kY0wLcExrckr+H/ZyuZ7uxY2mC63wQeiVwelICTuex5+d05rZwITRjuIJOrxV1OH114lWKQg2nPwaBEPd3OjVkbdkmXPGnqeXQmMqK1Bp3yy053UwY9KsEVJXY6cEt+XvoWZlSUaevHdK3dlhDcJ0PQq8ETk9KwOk8pMXLXZrDFoGg0/nxNXczn2+qmxScPpR4laIIw+mPQSDE/Z3OP+rgXmnOty514qoSdGVFqgZOam5OB621et9GN9xO500Et+TvoWfluV84GsfDrTTzIGFwnQ9CrwROT0rA6dTKcKNeGCoJC32tFnQ6j6Aq+we52MPpKxKvUhRVOP0xCIS4v9P5t0jKUb36l+V0iuxZTuTx4WZV5PGFbefw+pdqGH1bjf4NM3G/PGfWwNfJwS35e+hZmWpf9cxq43jG9LUxa3CdD0KvBE5PStPpPCK99ppczm1t7aDT+fmkhW6/jPSLgOD0FYlXKYoqnP4YBELc3+nc1rFPTBeUssWfJtreC+15sypu55gOda47Zs5RYS0/ul7OuTGptf5i6l11WQ55nC6UmvOiwS1FnE6Tq3c/No+HX+5yG13ng9ArCTl9fMgduXwn9pQTj7ApEKHpdC6wtYhz/7rOo7DTef750db6Lj9zDKevTKhK7XHx5wDP+K9tvAUngh4EQjzA6Tzr/Gg62aHJVLxN8edL0zPS47Z5h7ldFVUFdT6dbF9Uc07V4oQfyN6kpas+HA3L2NsOwaeCm+P96fSA+0nM2/KCW/L30HM6d/icTqd7+kwROB42OFfp8N4/BL2SkNO5F99jSO8TGEbT6VQIa10vZhwMZ7fv6crpI13sNGfUxofTVyRQpfgt9j66Byw4EfQhEOIBTvdeNj7jTm49jVvd1OjlQeTnZHK7qmo08A3fjuJJ/LfEvRXP0HT6Jq/PYbq8g1uKOF2/qpfQag0dD9dZWm147x+CXgmcnpSG02tvYjRwCeVJYafru+eaA14bnL4igSrle4Dhy+XwRNCHQIiHON32uWgb0r9m2gbNxCwOePZyVeXvVJyO3ZxF6enbpeqlZVzve1nbMA1nZlb2P4e25O+h5/TyBWD6wddqniqlZU4rDu/9A9ArCTl9XV9dOoaM5gTDaDh9XBSHdnhTyejQ5AFd9Ltf3aLZqicnNvdPZrMjlsthYcdQ+fOCPoSq1IGtAQYb2uBE0INAiCdFcbBU3HeKwvaNVCnLxt7xbHbCK9kvnJl3itnseJcm7hSVmdd5ziOe86Ccc7J/NpvNiv2lzemekPKWasVkj+c+rsmvuSV/D8eH3qFsFOez2YG+hgseDx236eAP7v3qRJ0OnoyG00EiHqWZBNrIM8T84vNqlMozB05PD5yeC3C6OHmGmJrp7iVdzx44PT1wei7A6eLkGeKr5XEwzxk4PT1wei7A6eJkGeKdF9TzAqfnAJyeC3C6OFmG+OoF9bzA6TkAp+cCnC5OliGeTl/SaFQ4PT1wei7A6eIgxOLA6emB03MBwhEHIRYHTk8PnJ4LEI44CLE4cHp64PRcgHDEQYjFgdPTA6fnAoQjDkIsDpyeHjg9FyAccRBiceD09MDpuQDhiIMQiwOnpwdOzwUIRxyEWBw4PT1wei5AOOIgxOLA6emB03MBwhEHIRYHTk8PnJ4LEI44CLE4cHp64PRcgHDEQYjFgdPTA6fnAoQjDkIsDpyeHjg9FyAccRBiceD09MDpuQDhiIMQiwOnpwdOzwUIRxyEWBw4PT1wei5AOOIgxOLA6emB03MBwhEHIRYHTk8PnJ4LEI44CLE4cHp64PRcgHDEQYjFgdPTA6fnAoQjDkIsjg7xrropQDL+WymbAmlR6r9tCgiBEIuj1L+vrR0oAAAAL4J/rK39l5rPQDIulbIpkBalLm0KCIEQi6PUf6A/PTHoT88FdPaKgxCLo0MMpycFTs8FCEcchFgcOD09cHouQDjiIMTiwOnpgdNzAcIRByEWB05PD5yeCxCOOAixOHB6euD0XIBwxEGIxYHT0wOn5wKEIw5CLA6cnh44PRcgHHEQYnHg9PTA6bkA4YiDEIsDp6cHTs8FCEcchFgcOD09cHouQDjiIMTiwOnpgdNzAcIRByEWB05PD5yeCxCOOAixOHB6euD0XIBwxEGIxYHT0wOn5wKEIw5CLA6cnh44PRcgHHEQYnHg9PQ8rtPH0+mGTYKBQDji5BHijcODwG6MptNNm3zOwOnpeVynHyp1Y5NgIHC6OHmEeKbUqU167KoXccXc4fRJURRjmwZCtDh9vygOB8a/cE6/VOrQpEA/4sKhjNiyScP6welsdnzwEtp1T0o8xNvF6eyi2Cu/PlPqxCYbtH3HzjoY2TSzXRTbJlUtFnb63mtw+t6cjnJqPwAh4k7f5h+MPbYfeuKcvknLXukU6ElMOJt0elSF/cBskxQMZxM7CfQiEuLREatGM9MGHlNqrr9q0vadMbO/DcoqozdvsVfr9PULOkY4XZy406lhQcXQb3R045w+pWXRpzaIsHBGR5wNvtOP9QTDPHwaAGHCId68tdHUcGOaKkW0D7Htuxane4u9VqcfLugQCThdmKjTxyYHduzHfjinjy7UfNiir56gcLaudS54TucGn7oodg/1ORfnzSEEQ7ytG+lXJ7uHx1ec4pv8J9eXe+bbJm3fxZ3uLfY6nb7Ol5vX3EKB04WJOp3K2BU1YM7sx35U/elgKCHhnFIVmB/SP147XS0K0+WyxTLa1UnQi1CI17ntcm2nb9KJ8kHKiTu94nU6/USpxeGIr9/hdGGiTqeSd8j5MOguKZy+OgHh7FANOJvQN77T91wnOmtg4A2P103I6VTO1XlVyLcvHjQsA06POf1UnVPBhdOfgJjTuf9vfYv+iV9nBoDTVycgnG11zRWAcsG/R1pBTcxLmwQ9CISYT5tNAa0MnB5z+qYeugWnPwExp9MFP+niplYkd4r90draeP9sVuzUKsd4WpzPik3f6dvFIQZlDCIgnJHpWYk6/VKpa5sEPQiEmIdiNB+T2yoKb86tvaPZmRtOWv9uibjTq8VqTh9ND89mR6S5mtOnemjlwTN8fi/qdAOc/gTEnH6t1L52tFdEyfDrawdm3NfC68jVHbvEyahyOs0b9hCIEBCOhUIbjiVlUqzygADNEPPlaCCEvnYnZgSeUlfG6uFmtiXu9GoxfwUbVE+Ys3Hl9PGRG4hz/Oyez9GHD6cnJeJ0Hl9O7ewN+lM9OkTlb6Ms4N70PTtGiVr2p3D6yqzgdDqXxh9/AQ2aIeauF2q7LONpd8c2WIiFfsjrMZ1uxtwwekSInjaymtc8u2c84PT0RJx+bMti7eqeCtsVSXt3usPjMcq7p6z/xcnOdM+URTh9RYY7nZ8Kw7iXATRDzIP9A46ptDth657uTqcFNZ71vaVHdPqEW0O08l09iNLWRKqR85PpZG19h8exPrf8hdPTE3F6WYAPKA/cI+ha2hf6KSRuVRzoiWvnlDQlTz8NA6evyHCnU+QXw54Je+U0Q0x+DYW90i6V6YUZJjA6Mg9rVN8FYKfTCcBBsm5xOlcYU4u4npXt9Ivy7QIjqoXP7R44nJ6esNOpBWia4RPKAzdcjp1ulK6Lm8k3WoE60inT/Q6nr8hgp/OoJAxlHEIzxNxAtkkfp90Nakm7GJuFO52+RNzp3EwvV6UXtGnHoVK3NvlcgNPTE3b6GcnbpC68YkWenpXtwtOyU4Y97u7Poz99dQY7nXx0++zuoSWlGWIqprbA1nDa5ee9lkafPJ7TeeXu5WzcZrdJB/f2P7MLMTg9PUGnj6gBYTvyuJDaN8vVPE0qN64n/Vc3cjDuZXWGOp2NUOYM6MVwp580ez86nX45q5i3OZ00Xt2s4iVt0sEGjBWKTIHT0xN0OpWvsqOWX/tSFmHf0/tlEbz03x8Ap6/OQKdzGy7uFhCiGWK+DWmTPk67lDjXiYpOp/vboJnjTj93XxINp0+nU+5lh9PBQIJOv/A8Te3w0u++p10RvK260+H0hzDM6Vt0rr16ZtflyWmGmPwaCrvTLpXu5dGilZwDDHL6lb8m3+kb1Qj1aKHIFL3DcHpSQk7nG6M39uJxRnIu+2FCTh/R30o4cPrqxKtvLcSGdbqox4t2h9IMMQ/KDTim1G69dBsez+kk7pDTRzySzPHMMhlOT0/I6dxTW8PeLw220/2BAXD6Axji9HUK7xw/czSUZoi5dyPwe1xOu3TqXBb44zn92u/YcRVqxI/1XRfb6HsBqxFyun0CwsO8uiXodCqYVRGH01dngNMnFF3zUCMYQjPE/MDcbbMLy2mXqoJt0Dgez+kk78p9rkKxyO2jrWxAOB0MJOB0Lufe2xi5sJkHI4JOpxJqNU7A6avT3+ljMs0CQ16GEwgx3yRt/niL0+65PzTFUMk5wCCnn1a3qrwKRZssTyNwOliBgNOPqKh54555YKMZzxV0Oo+rLUfwsmzg9BXp7XQofVUCIeZWce1es74kddrl56WXLogez+m87TIfR/wzQDo1rwYdwOlgBQJOv10av8U/kqatHXQ6t+ptYWXZwOmr0tfpOspQ+ioEQqzfmHXlJo+OFtxqd9rl0l1WhlGho+45fVocLD30Ncjp/Byp/VZ3opsKRdXP3qAa8R3cWKHIFDg9PU2nc9hrbw7iV0XplkPQ6VxETd/MBl/Hwumr0tPpukE36IdKQEkoxFzc1XxXfzE+pGLLsa0EzGNQznQ7fnptcqH6jurO8kjHQU7Xo250zZpwptoKRVuc64uFMc34cpy+pUfRcXvkihP2ZVFAgKbTa718DL/bRZs67HRWvro6KriAUpMeTl+RQPUdneuKQIHVQ0u1CfhhL5/lW3ggTtCQXJKJ+WxGzWaCL0kr7XJDXV2fFSdsIz1CpvqOTwc2WTLM6Zu8xevj4oT+8tWwnsiruN2bbh9TFaLpL8XpBR2WR6whDx5Ow+ncfb70w9InlAd8wRR2evX+9MUurQ1OX5FA9eWGoA/PsFQ3GqdkECdsyGn1gA/ZdPndi9UrztWV7mipO/1B7XRv5Qe0czYr2e6axR7NGtrjjNE7HHL6Ultk2G/XgyE0nM5v+1vqreVJ3EQhT7uxvLtU5GxybVt3uqjLTX5aqXJ6YNwviBOovmMdV4e+fLLNSsdze3FfSiKGHB2YAkxFmH+ckSCXOlnbfhF1c2j6zqvv2OlLvWCcO/5vNtLM9kKqWsxf+SY3/6mtTk0mahmZaaNDY/rLDR7t6K/tGRB1Ongymn0vm9OlF9HxJH1fYzx1b5HjaV5pG28Xu3qp9XJqbV7Qg2fXJHt+xEO8Pt0rplWJHpkCX0JfmuLNVN8dB8a2b05rm6CZ7RzVYvWVj6bFnh5ZM6mWHPPe8HKTZl3MHDg9PU2ngzTA6eI8boh52Mpz+xkiceD09MDpuQCni/O4IaZmOnqFl4HT0wOn5wKcLs6jhpia6bfPrLP7CYDT0wOn5wKcLs6jhvgAPS8B4PT0wOm5AKeL86ghvl0exwgIOD09cHouwOniIMTiwOnpgdNzAcIRByEWB05PD5yeCxCOOAixOHB6euD0XIBwxEGIxYHT0wOn5wKEIw5CLA6cnh44PRcgHHEQYnHg9PTA6bkA4YiDEIsDp6cHTs8FCEcchFgcOD09cHouQDjiIMTiwOnpgdNzAcIRByEWB05PD5yeCxCOOAixOHB6euD0XIBwxEGIxYHT0wOn5wKEIw5CLA6cnh44PRcgHHEQYnHg9PTA6bkA4YiDEIsDp6cHTs8FCEcchFgcOD09cHouQDjiIMTiwOnpgdNzAcIRByEWB05PD5yeCxCOOAixOHB6euD0XIBwxEGIxYHT0wOn5wKEIw5CLA6cnh44PRcgHHEQYnF0iP9LzWcgGZdK2RRIi1KXNgWEQIjFUeo/1tYOFAAAgBfBP9bW/lNdTUEydpWyKZAWpXZtCgiBEIuj1L+hPz0x6E/PBXT2ioMQi6NDDKcnBU7PBQhHHIRYHDg9PXB6LkA44iDE4sDp6YHTcwHCEQchFgdOTw+cngsQjjgIsThwenrg9FyAcMRBiMWB09MDp+cChCMOQiwOnJ4eOD0XIBxxEGJx4PT0wOm5AOGIgxCLA6enB07PBQhHHIRYHDg9PXB6LkA44iDE4sDp6YHTcwHCEQchFgdOTw+cngsQjjgIsThwenrg9FyAcMRBiMWB09MDp+cChCMOQiwOnJ4eOD0XIBxxEGJx4PT0wOm5AOGIgxCLA6enR9zpGwc7I5sEbUA44iDE4rQ4fXpyq5S6mR3Yz0CIkNPHp/YHY0+KvQ07bVVGc6XObBq0ERXOxoWa79q0Zv3wiirHfHY8sRNAPwIh3prNLsY2zRSzWWGTYAWiTp9ymTVcb9lpQISQ0/dt7DW323bqakxpFdc2DdqIOf1wQSH0PDM51/nCzNHkGUQgxHsURn/iTKHf4CHEnL7JpVjNb/hfdeufRcFjE3J6oQPvOH1IDmzSCi5sGrQRdvrWtc4Dz+lmwqX+V+3YiaAPcLo4MadTnK/2OLFPF+7qVE8DMsScbn4F/FCr40FN9b2iCLkKLBNy+uiI409UTh9Ra6fgs+wm580tul8GAKeLE3P6zk3ZfchX7nObBhLEnG6Ta1t8X2MxtZ+AHAHhTLhNPtugf7x2+u2RvW4a8YUsGuoDgNPFiTndg0KsHnqbDrTQ5fS1MXffojkoT0A4OxR5at5QBgTv2/F9j0ObBj2A08Xp4fRjCjkaiYJ0On1tjW9YQx3iBISztdBtcop/0Ol8r+LEpkEP4HRxejj9lEKOdrogPZy+RR9v3Rjz8ZEeSHdW9rGfzGZuoN3hrBp8Op3N9J0Q+v5hI2deCwHhWCjeQadzzyROtgMY5PRjr+BuzGZuQO7u7JrK/4W+4Ud1ZTajxXdOrtT1mT8KafuYq8n17PCVPZzRw+kUmAUeWRGkh9PXuPelvFiacv+65sTky6VSVzpBzJW6sUk+G+uMvYkICSwx3OmcT7WB66CdQU73Cy7PZVLrdsBR+dQFzT8dX9hJs3KE2LYZs8fcvK5uhm6n71BQjm0aSNDH6dv02RZv/krNTmZs9mvdyc5TbKXgvgC1adJrNIdeBk7vyWCnTyjE1fUT6ObhTh+x0i9PTmk203qhxA63yG/0+Gvbuhnzh8VsRl++tizqdPoONfzmuD0nSR+n88ALM8acrX2uGyOHlNJnW/7SXoceULLsDOAOG91pBqf3ZKjTdYsRzfQhPNzp++UgsMmxqRE0Pz8pzSLjtrkZhjRR6lT324z5fuCrapS2OH06nW4XfJq7QW+6KH2cPqLPlzpFF5nlA0Qk8IU+3VJRPtdT+FtXI2gdpiEDp/ekv9M3qHYcnHBb0J5MQT8iTj8uKqi4tjn9dPmutG6Km/nWKUfssoduO9SGd12Tr4G403c5UsTVftlDBWTo43TuR9GC3iGPl+dYfpGLbpNTU8Tc8hgtFJXqhckxakQe6QSc3pP+TteX+XRRf4T2zjAiTl+izelUrOvNbnZ6Odt52Y7xoIb9q3rAJu50F+kr/cgcEKOX06l468J64j/nT61y3WTh0Rf6cpQSpyR6fflJV5/2tiqc3pP+TqfPmptTvAxpEA93OjVg6i8rIafbq1TT92iTDq4dr0lhcaeP6Spopm/EPfQdUqCdXk6nhqF+Dxdp3DS+mVLw3GDXbRdabI+uTfUIRqoEtnkCp/ekv9P3i+JsxjfmENphRJw+oO+FB21clcMAGHK6e3kJ9y4s3/1jp8fy9SUSd7plk4enL/wQgkemj9PH9FlnEp1kr81beAkq8+aFi5RJuhVPllmnYq3TZ66ow+k96e90w7igkyliO4SI0/2J5Og2p3PBprZMdWvad3rd35vTAzpHsMFi+foS0Ufb5nTz+POrusfw1PRxOo924dG4fK+0hrlxys0Tykgy/5XWP52Due1u30QCp/ckXvcppsEQrlOU3f0N0E0gxEOdPuKRLNRwKZ8lijh9ckiLl8Ty9SWij7bd6fpBUjTU5ejjdL7g5GfkWNhVO302uzDdYjwal76muY51GT/Upbt8VAxO70m87lPYwyFkiSC4/QmEeKjTqYVj3l9/bawUdvomX0JRHZjpLrJYvr5E9NF2OJ19ghFbcvRxOhdiXYKppIaeRTf14EQ3zWlZSh9Vd47g9J7E6z6FPxJCOptWN61BF4EQtzrdDXHxnU515oiVfaNvfQadvk7Lzo900mu7vwr00XY4nZyj24hAhh5O564X8zBcYySXgR/EGFEd4GGMNDP9ua5OxHB6T+J1n+IfCeFrG/38QAIhjjudYutsXXc6XZpyM0c3b4JOpwo0t50LcHoTjsnremPC09LD6Vx+zWn1LNws5PPuDv2jM5Iczmk3AABO70m87lM0IyGk9qIzCugkEOK40y+8H9Ll23o2aaFWi74SDTrdmwinN+EfesEQdTm6nc7l+cZ0jvMLAUI3N7hJQ5VDi4dHM9IiLlPh9J7E6z5FPRxCfgEDLmL7Ewhx3Okn1atadPe4SZYc2/mCTl9UGQanG06rH2/ZovDg6lKQLqdPqGirhX22ZcL9t7ac+9ACN9SG19dTO5SmJo7rd4fTexKv+5QDVQgPDl0TZ8Q/g4QBBP0JhDjudG7LmDGL5o6nTrpRRjSf7oYMOp3aOPZ20gZnUSxfXyL6aJtOnyh1faDjMCpIIhitJUnM6frnSKcH55QBauGG4/JArkubH9NT23o3Pe5KzfVH/U46rxzD6T2J130KZxXCmZqfmM7IHQotYjuEQIjjTueCvOCRXbta6bqabKoLcw7lR0b1HaOg03kQu26XTvWisXx9ieijbTrdDoO+mplY4uJSkpjTPeyoLWbEQ7PU9aw415njHppju5RNEyrlNItJE3B6TwJ1354fS/RJ04yku+UfZiAa17ighUCI407XDRi10AWd5+JJ3Nl1c1GccPDNnaWg0zc432bFCZX9W/q/sdEXjD7aQN/LgVeUr6t+GCBAyOl81em4qY0kHR15eWMeOWK4g6Y8+eo37lavEIDTexKo+5Q5NXiGTSNzzbwIdISBKIEQtzh9xM/GMLfbtKSuJrq3y3BpusCCTl/bLWvJ5YRmaGz0BaOPNnSPdLx3rtvo19VPoQEZQk6fnJcPFRW7jfK4cTrTBfbK9gBoNi/V4sK22rkUl/0zxKn+mWTQSaDujy5sRhjsMIypbiZSU/14+eUioJ1AiKc36sofg3G0mFftkX0u6rf8m7CXtgEz2tMvlFYXZVOT5neO2rh261o/oyUXrK8TO5D9lRB1umYD/ehPQMjpnYwxuvTxGdSem+CNjCswKMSGjaaQJ/1K/+hV+qvd6eApWMnpQIAVhAOGgRCLA6enB07PBQhHHIRYHDg9PXB6LkA44iDE4sDp6YHTcwHCEQchFgdOTw+cngsQjjgIsThwenrg9FyAcMRBiMWB09MDp+cChCMOQiwOnJ4eOD0XIBxxEGJx4PT0wOm5AOGIgxCLA6enB07PBQhHHIRYHDg9PXB6LkA44iDE4sDp6YHTcwHCEQchFgdOTw+cngsQjjgIsThwenrg9FyAcMRBiMWB09MDp+cChCMOQiwOnJ4eOD0XIBxxEGJx4PT0wOm5AOGIgxCLA6enB07PBQhHHIRYHDg9PXB6LkA44iDE4sDp6YHTcwHCEQchFgdOTw+cngsQjjgIsThwenrg9FyAcMRBiMWB09MDp+cChCMOQiwOnJ4eOD0XIBxxEGJx4PT0wOm5AOGIgxCLA6enB07PBQhHHIRYHDg9PXB6LkA44iDE4ugQHygAAAAvgn/A6QAA8GIgp6PvJSnoe8kFdAyIgxCLo0MMpycFTs8FCEcchFgcOD09cHouQDjiIMTiwOnpgdNzAcIRByEWB05PD5yeCxCOOAixOHB6euD0XIBwxEGIxYHT0wOn5wKEIw5CLA6cnh44PRcgHHEQYnHg9PTA6bkA4YiDEIsDp6cHTs8FCEcchFgcOD09cHouQDjiIMTiwOnpgdNzAcIRByEWB05PD5yeCxCOOAixOHB6euD0XIBwxEGIxYHT0wOn5wKEIw5CLA6cnh44PRcgHHEQYnHg9PTA6bkA4YiDEIsDp6cHTs8FCEccwRCfK3Vsk6+aVqdvTg92p2P7AUgh7vTD2fmmTYI24sKZTKc2VWMy3bIp0A9Bp8+UOrXJV03c6Ztnt+bH7S7hA1lCTt+Ym+ArdXV++MAM2KK14EKsD1HhHC6UKmy6YnzNGbRtP4E+BEI8tqIx7Nupw4HTDVGnH9sQMwd2GhAh5PRDG3rD6cROXokpreHapkEbEadvXHImNJ1u6sie/QT6EAjxrg5jSTPMfYHTDTGnb1N0F7Oj4oIaKGqBlrokIacXFPbZbKYbgsT8IeKYUB6io7EPQaePjrgOBGSzaabD6UMIhHhPh7Fk9XDC6YaY0/fU/FD3pK9zG+VSTwMyxJxuUhsHWuzn5tNKrKPXtx8hp29x+K/o/4bTLyhXaDqcPoSI0wPn0sHA6YaY0zeOy8v9CffsjuwHIEC709fWxqf04QHXpKAvAbdsUujnB/RNIwN2lLrdoOlw+hDgdHFiTvc4o5Cj80WQLqdTqeerfOSBOAG3kLmP6YKV4r/k9NEN6ZyyDk4fBJwuTg+nH1HIgwO5wOPQ7XR9N+7MpjWbe94g01FU9xu4wBpCwC0bZzq4FP8lpx9ylyScPpTeTl+f7u80tTPaPpyWZXp5jtLpVDf059dKD6dzn2Ez5ODR6OF0vs25cBLfptJL3JzYKdfePdALT/77drzLFYYu9SNe0CncdadzjmzC6YPp5/SN03IgtbsTRAV7a22bJ9/yx8Ac2unjEz0K+HLDTnyFdDudrzF1FIEQPZyuG+o7JjniCyfDtSnPdNa90Qn6kuVfNmT4Jh7/pRxEb3wfBjj9TKkTnXVw+iB6OZ1Lf0kZdjL21I56pE+ROU43y7Hu89f72EC309kmaOVJ0sfpPMbctsW5kX5+OD04Zn3rjgGuFLb7hecre8rY71o4cHpP+jud4jyfwOnD6eN0jurtcbFd8K28smRTsT+gAj2/5IoRm+OaGunXR2dU4NXtq+127HL6hMdcXKBXVpI+TudCbDJph0xunrXbpKKr2+ET+tIaR7fhrfz5GQM9eglO70l/p9vuLDh9KH2cPlZXuybFRdh2JZKxF2pBwR7TxWlsDnI+Tx+x6l9tQzTu9HFRFKczOjOqMyhdlD5OZ6lc8d8RXVyWdiG9mzYKtV1sDvJA6vKh0ZNyKpzek95OP7C5AacPpY/T16rOcCrDtltRG9uKPD7H3LTZuZa82ken407f5xgSVxjzIkwvp5OXddGlbKmuKq+tafhNAvp+6Zi+pbSpIbTIYZmA0/vQ1+kTCrKuFnD6UCJOdyzduuMedJNiYx+ZZI3aHFbp2vSv9iZg3Ol8UWO4xluKRBnkdLqqrAY1ntsP7tEXKuDHJHrdN8NPyzi5w+l96Ov04/K5Xjh9KF1OX6oKfH/ILEDGvgp1GNTmcOPTuUVqk68OHY9wf/qUKI7IB/oOPxCjl9Pps77av/Q7Cskt5rUNlEta7qdKbR9Z4VDj3V5+wuk96el0OlsuzGPWcPpQIk6/nFmqBosmbGyf8BzcLRnLy5eOPvKWe6TU9GOro9wK0sfpLA+dSe4dvBbTl0gen/PfG7UYUSHXoxmpiNtrVTi9J3EPUKSrEFJkTacWnD6YQIib/enERnEym5nCbr5rOL11jsr0rw995K1O16+fm1cPLYLHpo/TuYzycJYxF2Ef067hr6d6TbO1EZVzSvOc9nEMOL0ncQ9QMF0IqQ14Y3sB4PShBEIccPqufruxxXy35PSOOeD0Vqdrv7iHtcCj08fp3D/I8hjR3/Oi4sC+ao08To1ymovMY37Da7e6SwSn9yTuAQq7CyHZ5MKGnx/eoOxY/XccXh2BEDedrnvYr2fHRcFDqc13dad3zQGntzud44OnjuTo4/SLsox6Qxl9qGRfaZvTyZfK+7WeUt4GgdN7EvcAhd+FkDsjlyhfYgq6CIS44XQenjEzrcjKzTWnd84Bp7c7HS8UlaWH03kMixlpUW+uOHhE1zq11rlXnR9B4rT7VTU4vSdxD1BIXQj1++zrwOl9CYS44XQecm47eyNO75wDTm93unu0BYjQ7fQRdx6a171QadbjX5bg9wDsk/m1+K8ovWXvlDJwek/iHqD4uxBu8ogwA59Kj6ZT1I7eBELccDqV3/KddBGnd84Bp7c7na77nR7A49Pp9BH3vJhmuq4A9mVeNfh9XbSQ7iOjv5x2w8Lg9J7EPUBRD4WQsg6XsIMIhLjhdHNzSFN9V3N65xxwesPpo8WpiwjrpYomeHQ6nD7a4w7c8lKTn3q+qdqF7t71Pp14qTWvc40K9OLakw2c3pO4BygH4PTHIBDihtOpHNtfy9znd5OY72pO75wDTm84ncvqbH+6OZ7u8BtESqEACWJON0MrqKQSV66Acg1YHOon07ePb80rAQjOMcoo84GaMTSTyzQ4vSchD+zqXKB4zvjv0iPVcPpQAiFuOJ1HE51S6d08oUT5Xc3pnXPA6c2+F35riGOOkYySxJxesTjy+r7qXzlxc5d7WaZ5fJeXp3B6TwIe4BvOPi7eGjh9KIEQN5w+5gtTdcUOOqcmpfmu5vTOOeD0ptM39IuJNQv+PUYgR8jpfF+65OqoPqxC/5K9YW6fZyS06q1fuJaYl75o4PSeBDxgrn8q6lkBpw8lEOKG09c2dQOF1HPAojbf1ZzeOQec3nQ6NVB2T2az2UWx/1pD82SEnD7a05f8RTF1P79YMdouTnXe+K/MHB8WxYGdd3RQFIfVcrQujMzoQ8gDFFaPpaeLRvQt6scQAiFerxVWA8vnZI9m3S0K890O1QWdsLTPMQ6s87UQdzp4KkJOByl4vW27JwMhFgdOTw+cngsQjjgIsThwenrg9FyAcMRBiMWB09MDp+cChCMOQiwOnJ4eOD0XIBxxEGJx4PT0wOm5AOGIgxCLA6enB07PBQhHHIRYHDg9PXB6LkA44iDE4sDp6YHTcwHCEQchFgdOTw+cngsQjjgIsThwenrg9FyAcMRBiMWB09MDp+cChCMOQiwOnJ4eOD0XIBxxEGJx4PT0wOm5AOGIgxCLA6enB07PBQhHHIRYHDg9PXB6LkA44iDE4sDp6YHTcwHCEQchFgdOTw+cngsQjjgIsThwenrg9FyAcMRBiMWB09MDp+cChCMOQiwOnJ4eOD0XIBxxEGJx4PT0wOm5AOGIgxCLA6enB07PBQhHHIRYHDg9PXB6LkA44iDE4sDp6YHTcwHCEQchFgdOTw+cngsQjjgIsThwenrg9FyAcMRBiMXRId5VNwVIxn8rZVMgLUr9t00BIRBicZT697W1AwUAAOBF8I+1tf9S8xlIxqVSNgXSotSlTQEhEGJxlPoP9KcnBv3puYDOXnEQYnF0iOH0pMDpuQDhiIMQiwOnpwdOzwUIRxyEWBw4PT1wei5AOOIgxOLA6emB03MBwhEHIRYHTk8PnJ4LEI44CLE4cHp64PRcgHDEQYjFgdPTA6fnAoQjDkIsDpyeHjg9FyAccRBiceD09MDpuQDhiIMQiwOnpwdOzwUIRxyEWBw4PT1wei5AOOIgxOLA6emB03MBwhEHIRYHTk8PnJ4LEI44CLE4cHp64PRcgHDEQYjFgdPTA6fnAoQjDkIsDpyeHjg9FyAccRBiceD09MDpuQDhiIMQixN1+mTf/mIps2knAgmCTt8oiu0Nm/bY2CsObW6MrtRizyTB4xAXzm69EuzYisEgD4bQ4vTt4ng2Oy32JvYzWI2o08/sz5Vqbu1EIEHI6Zs67oX95NjTk43rp5S60inwSMSEszGrZ8a2zoaSLTsV9CAW4tHRwoaTSjVOkw8h6vQbG1/N3E4EEoScXpjAL7XUR7d6qinycPqjExHOodaN53SbO5apnQp6EAnx1rUNpuFybKeD4bQ5fW5/h3o2O7ATgQQxp5PAj+1Hy4GeaJ0+mqn5rk6BRyIonK1LrZllp9uqMZudjexU0INgiEdHHOD5WTGdFsdXnD6034DhtDm9ORFIEHP6MRm87gsq7lz6cWkqREg4HPD5If2z5HSbBMMIOv2CY+wajuvFvNnrCHoDp6cn5nTuU681xLeUWmzQRDhdiIBwdijeZxP6Bk5/FEJO53De+JMnx9s2BYYDp6cn5vQ1uui/sJ81Z0qd0MxwuhQB4Wyra+4vh9MfiUCIue2yaJoerAicnp6o0/fpH6+sTxbUdvecvlns22Ff28U+/TvaO5kVO37lGG0XZ7OzYgejw/oREM7YBJuiDqc/BoEQn1A0j2x6iWlx6Mru+KDYMamt4mBEhXv3eHa0WxtFMC1OZ+fFbrmFaVG4r9e9wajjfTcAdWmJlnU/H+D09ESdPiaJe4X9kMe5eE6nLLKeodT62t6cvlJqbgs+Fd0jM4X7g+0k0EpAOBYKIpz+GDRDzKV86b6RoyriZhyvSc14rNGOKdwLbs1oRodmVBhNOzKro/mudYI490ZkU0Va8N/mErF1Pyvg9PREnb52WivtVAD3406neS32ZtOIpjpOzTTQCpwuTjPEfMciJs+40zkLDHZs2EiPl7EYdfGdbbu1EQ9HLRvqtDz3aQaWiKz7eQGnpyfudB6C7prdVPYXo6jTqSzeHk53qTmi5uY0sEWpk+n62uY+tzrwYEwP4HRxmiE+pmDGHlSPOp3+mx9Nd3VDxvTOUMVYnG5vrG3scuNbjy3g8QS2gcM1qVwVXxjwSSSwRGTdz4s2pzO3s5MDjP+XJe50zgV3l/RCNxtiTlfqXKuch96Zcrx+zT2DOkWF+MwkQRtDnM7MzvHajIE0Q8zD/6uL0TpRp5ePJfEtJ9OYHl0XVlRjUvSlTlXVR+eYtRxfGLCrQ0uE1/28iDrde67rFo8cidLidL56tE0FljkJJOp027vCj5o2cvMET5z2oq/TOVtKTp9jUy4dzRBT4S17urfsK3SKcihj3OkX9jRwpdSNSVVQ9pg10iUAXdoyppvFKJwa4FbgDrdE57qfAVGn883oWdnhhEaeJC1On9AfW6ipfHJJjDnd5eCZd2Oo5ICuJm0StNDX6Vv08Vq36Ig5pD6AZojpIrK8Fq06uBtFfMnp12XLnq5L9f1OH26I6++5x0WfHsbUqKF1mf4Vf6UWt0Tnup8BUaeX7Ogno22IgQQtTucOF9OA4PY350LM6a6U0pLuBn9JVR1AG32dXmJuTNeeIQDtNENMESybzZXTAwW75nR3z5+nlg4uYZWbrcyVOuG/5Oxjyiu9FA+HXx6lWC3Rte5nQKfTdSNPzW3HExCgzencgNB3Sal86XufnU7nXkCbNKxPp9zJbj+BFoY6nQTB4yncbWzQSTPEVHjLi0j7CuMq2N1O51dk1tY4mU7ZWGYaeVz3ntDfHapKurFzuNyjUluidd3PA73T7U7noZ0YNiFIm9O5eX7OCWrC6Ps1nU6vij7NfGTfP0XYSaCFeBWmAAadrsP9LEe8JaIZYiq8S8NLqmB3O71qYZOcD+kbi5m2Syluk9+oxYiHu/AdbZrHPfTRXCK27meE3ukOp3NgcJtUjjan65FeVOL5glEPsRjg9HFVXgkzDbQRr8IUwLDTx/QNOl/60wxxs8lYBXuI00e1n3yw08jjh7rSkOFoMVoZZ5h9O3JoiVfidPaJ7pUCIrQ6nYNPJdHdq+/v9BEr/brYm6LvpS/xKmxyIQRdSD3HwRGpaIaY+z3qzzlXwR7idBb0zdE+FfeqJ4XvR5HbaAKthv6lNLVQy66e0BKvxOl8lx/tdDlanc7Dd2/0YxLmpn1/p7PI7ZxVdQBtxKswBdBFuE41tBn0oBlifjJoUet8qYJNBdsZtsPpfB/JLuW5mKYuxnwpQFcCvKExt47swsElXonT+SSG33KRo93pXPK2KQvsSwL6O/2qGoMKp/cjXoUpgC7CNfhSHhex/QmEmDtfaqOlq2CTYd03HU6ntZR9YJ6Lubrsrs1N05yqyS6fg+097eASr8TpfImCcS9ytDudm+jn1+5GXG+nc1di+RoNOL0f8SpMAQw7ncdG4CK2P4EQ61939V+YXgXbdTlSeeYfzjDJoHepDpS3Pn0X02XuKX3W4wxOKL3pHkMKL/E6nM7D6XB1KUi707lcM3ZIbX+n018rmxG3hEwStBGvwhTAoNPHFPrFM30naxJCIdYl/KgaCV4Fm/sP7dsX9EwmGfQutb/L8Uf8vGS5FapIt/S/bt3waEZKa78TwSVertPHt8flwfArXFFqJelwOpes6jnR3k7ntzuYJ+LGekCjngZaiVdhCmDl9IvzcpzGlEOLFxkPIBTikX4RyaUN6gYL1gabRwhccR/BmJslrU7np/N0r7xuwbit8BpI3vojX7pS2laf8BIv1+lsjise/n9Cuoi/ChM8Bh1OZ2O718YNcDq3cS531rePqRhTYdbTQCuhKnymf0iaYnnDf3XXOYX79oQqx5F+7rG13xIsEbTkxDxGcTM7OrbvIym7s9i2N8fFMTUsuaFuJga9y/edrnc3to4od6i4u63o2mNHJnH3TTUYPrjEC26n0zE6ql9/BRJ0OZ3fGOVeo97f6SNTUYj5Ns2gp4FWAlWY4+3DQjBqsJziVtMQwpYcHfvCobZIGdQNrWTmlBZtc7rWv2axRzO4rXCrv5ydR3t4rgst8XKdvrZ5an7qg473CIVWli6n82/WuUcVO53OT4iZ1NhWlIsJz2CmgTYCVZjfouax0B0Bh+6tped41+4wYpacHLmY3p54jyBNTLv9hso8/THTwt4dFUZZlxs8gxscyTOUd2D1CbpqoYaWeMFOJzb3i+Jw+gyP6bkRcvpoOq3uYaxPvUK+NS3HlW5Mp7b1XqUIb8n17aLQ32xM4Z4ehKowxdaj/H6yWxTFjpctoB8tltzQr3vZXS6p6zRZO3mzLMTr02nVztyqivZkSnPyN7UKszmt5qDMrOVZc4nYup8RLU4HT0TI6SAFz7JZ9rxAiMWB09MDp+cChCMOQiwOnJ4eOD0XIBxxEGJx4PT0wOm5AOGIgxCLA6enB07PBQhHHIRYHDg9PXB6LkA44iDE4sDp6YHTcwHCEQchFgdOTw+cngsQjjgIsThwenrg9FyAcMRBiMWB09MDp+cChCMOQiwOnJ4eOD0XIBxxEGJx4PT0wOm5AOGIgxCLA6enB07PBQhHHIRYHDg9PXB6LkA44iDE4sDp6YHTcwHCEQchFgdOTw+cngsQjjgIsThwenrg9FyAcMRBiMWB09MDp+cChCMOQiwOnJ4eOD0XIBxxEGJx4PT0wOm5AOGIgxCLA6enB07PBQhHHIRYHDg9PXB6LkA44iDE4sDp6YHTcwHCEQchFgdOTw+cngsQjjgIsThwenrg9FyAcMRBiMWB09MDp+cChCMOQiwOnJ4eOD0XIBxxEGJxdIj/S81nIBmXStkUSItSlzYFhECIxVHqP9bWDhQAAIAXwT/W1v5TXU1BMnaVsimQFqV2bQoIgRCLo9S/oT89MehPzwV09oqDEIujQwynJwVOzwUIRxyEWBw4PT1wei5AOOIgxOLA6emB03MBwhEHIRYHTk8PnJ4LEI44CLE4cHp64PRcgHDEQYjFgdPTA6fnAoQjDkIsDpyeHjg9FyAccRBiceD09MDpuQDhiIMQiwOnpwdOzwUIRxyEWBw4PT1wei5AOOIgxOLA6emB03MBwhEHIRYHTk8PnJ4LEI44CLE4cHp64PRcgHDEQYjFgdPTA6fnAoQjDkIsDpyeHjg9FyAccRBiceD09DzE6cXsYssmg3R9D3wgHHEeHuL909nsYj/0AWjg9PQ8xOk3ShU2GaTre+ADp4vz0BBvXJqfZ5sufZhMpyM9A2h3+npxzlG7OkFRFyTk9OlsdmaTrcDpj0lUOJOz29muTZeMDk5mC6Vuz3bsBNCDUIiP7Y8jHx9u2ilxzo3F1V79w+hWqUs9A2hz+viIiqxhgXOgHCGnFxR0m2wFTn9MYk4/mFN2LMVxlyxigdT7Ewjxtg0jc3NoJ0bYpHlOJ2vr+5P6B6pDamFmefW0OH3dFNqr2TX9Gy7r4DGA03MhXM7tFX4tjqMLPe12xt/pNiPoRSDEezqUJRdjOznIkVJz1770PkxoyWuTfPXEnT5mlZ/qTqrJ3omZBiSA03Mh5PTRob1arcXxhCbMdvXc2ycbehLoQ8Tpu/yD9/v6RHlsJwc5U6rqk/Q/bJ8cdXfcvA7iTuf4Htg0kAROz4WAcCbctJlt0D9+HFlDF+iPXIGI0+3EbT5/trl5plTVvqx9ACVRp29RcDFG6EmA03MhIJwdpW53+Rs/jnxHDkpfiXanrx1Quq1LvVaeUbiDRJ1+rtSNTQJZ4PRcCAhna3HEHbx1p5PoW1uTIEqH06kuqFObDgGndxNz+oQugtDz8jT0c/rpbOY0Mp3NbK9jVay7vt88n822TRJECAjHUnf6pVJXNgmG0eF0DvSFTa5Nj6/o4/Xs0F4Snc148OjNbDY7H9c/UIWZNQabvlZiTqeWyKL1BjR4NPo5nSa48RX0rb2Iqpzd8f06pRSc3k5Pp4/oE/olV6PD6XzjwjZHtljohmv9LDS34UumtQ/05ay9ff+aiDn9CEODnoyncLoexYQxdx30dDqPi0bXy2p0OH3fFdOxHm50NdNmv+WW+khPMWzUPtCXcLoj5vRzcwm0tVPsT3l4P5DjCZw+4poBpXfR0+ksHrqI3Zge7uGB9IG0O319bv2ta4V5Qnd8St8f6Wl+eSf8D3C6I+Z0CtfJ5qk9F17A6pLIO10/IQOld9LT6RTe+aSg0DK36NAaQpvTJ4f8vG7ZLV69KIAaJOXtC1/jcHqYFqdXzz6rOW4/CCLv9DP/SxClp9NPlFp4l/6naKv3J+L0y9mMrEwsAi9aoOuiuU3C6d3EnM4nTKVmRVEccU/sAi11OcSdfux/B+L0dDp3Bih1fUK1Q79FCgPE+hNxumV+FBINvxDGDtiA07uJOZ2iuLDxHbESEC85pJ3O64LS+zDA6Re2Z2CbGuy3aPH0pt3pi7LfvMaUvrFLwendtDi9ChHfYMP1pRjCTufcq+oBaKG/0214CW7xYGBjbyJOp4lb+9w5UH/Yf2M6pYshPofC6b2JOZ3CW4WI7/Nj7JYYwk6/QEuyL6s4nd8IGGxdghBxp9t361S3nMf79icvGDi9NzGnU7iqEHF/Ft4RLYZ03wu/Q6ORwSBAT6dTeMt7dgQ1f3r9fAlg2py+tkHND/eArn5KzgGn9ybmdLpgr6Zxf5bzBXhsejvdXeJHnB77nm/kVTUBROnpdD5JVg9ZU4jPbRJ00up03ZFlW4+s9PmJHv+P/vRBxJx+RtfrNmleWYRfKhajn9OpCeMKcMjpLd+P6V9caPWgp9P5urXqi6R2OvpeetPudO7Isq97oTI8t0GG0wcRczo3RVzw7XNzQIZ+Tr/2Cm3I6W3f8zXtvFGXwDIB4VgoOyqXsHnc+EXKPfeYDOgkEGLP6fqS0qQ9ScPpg9DBCjidX5/uiu2VUwQQoJ/TqdCWXY2b1DRsOL31e642lxi61EVAOBaKX+WStVuv25e7C/BDR70JhNh3OncJmKse77oTTh9EzOns8Vsbx+q9OkCCfk7nX0szHWCs7KbT27/n4WD4TZgu+jqdc8fWiHVyD7rT+9PhdD5dmhe+0HWnvfW8zsNh7AxwejdRp3Pny40OJDdEXKsEPD4xp/NPNGq0qvllgLfcwbjHym46vf17vMSrD32dzv0tJppTCvYCzfT+dDn9iD7orix+nwW/RNc0UeD0/kSdrn+PVN3o30VXcx1cIEPM6RX6XpF+DP1mxhKhK6eG0zu+5zfeQT4dBIQz1kZx3JgOLL50VfMZBxuvBhhEl9P5dKlttEUXQOq0OKFG+pwa73B6b+JOH1GULDM8sSJJyOl8mVShT6njMkNut2iJptM7vueeymt0qbcSEA47xsfOUJ1zb9HeGUIgxDWns5zNJ33eZC7XaZqdAU7vRgcr6PS1tW0tietzPPksS8jpk/OZR/niHe5AuT0ar01uyxy7UAs36KLj+2KubtFQbyUgnNGFzQOD6zpfP+U2+nxWYEDYIAIh3p6rmyqK9MmOYdzU/pkdjNZO3Ax+ea99OMH1Ukmb04kJ3vkvT8jpMaYdVu76HrQREE4LI/xazHCGhXgdj8UMp8Pp4AkY4nQgyTDhgBVAiMWB09MDp+cChCMOQiwOnJ4eOD0XIBxxEGJx4PT0wOm5AOGIgxCLA6enB07PBQhHHIRYHDg9PXB6LkA44iDE4sDp6YHTcwHCEQchFgdOTw+cngsQjjgIsThwenrg9FyAcMRBiMWB09MDp+cChCMOQiwOnJ4eOD0XIBxxEGJx4PT0wOm5AOGIgxCLA6enB07PBQhHHIRYHDg9PXB6LkA44iDE4sDp6YHTcwHCEQchFgdOTw+cngsQjjgIsThwenrg9FyAcMRBiMWB09MDp+cChCMOQiwOnJ4eOD0XIBxxEGJx4PT0wOm5AOGIgxCLA6enB07PBQhHHIRYHDg9PXB6LkA44iDE4sDp6YHTcwHCEQchFgdOTw+cngsQjjgIsThwenrg9FyAcMRBiMWB09MDp+cChCMOQiwOnJ4eOD0XIBxxEGJxdIgPFAAAgBfBP+B0AAB4MZDTAQAAAAAAAAAAAAAAAAAAAAAAAAAAeHasrf1/6G9Ts+NnHkYAAAAASUVORK5CYII=&quot;&gt;" style="text;html=1;align=center;verticalAlign=middle;whiteSpace=wrap;rounded=0;" vertex="1" parent="1">
          <mxGeometry x="-1486" y="-1241" width="60" height="30" as="geometry" />
        </mxCell>
        <mxCell id="42EpbFQZqqC_yjip7hL5-4" value="Karyawan" style="shape=table;startSize=30;container=1;collapsible=1;childLayout=tableLayout;fixedRows=1;rowLines=0;fontStyle=1;align=center;resizeLast=1;html=1;" vertex="1" parent="1">
          <mxGeometry x="-600" y="-1520" width="320" height="120" as="geometry" />
        </mxCell>
        <mxCell id="42EpbFQZqqC_yjip7hL5-5" value="" style="shape=tableRow;horizontal=0;startSize=0;swimlaneHead=0;swimlaneBody=0;fillColor=none;collapsible=0;dropTarget=0;points=[[0,0.5],[1,0.5]];portConstraint=eastwest;top=0;left=0;right=0;bottom=1;" vertex="1" parent="42EpbFQZqqC_yjip7hL5-4">
          <mxGeometry y="30" width="320" height="30" as="geometry" />
        </mxCell>
        <mxCell id="42EpbFQZqqC_yjip7hL5-6" value="PK" style="shape=partialRectangle;connectable=0;fillColor=none;top=0;left=0;bottom=0;right=0;fontStyle=1;overflow=hidden;whiteSpace=wrap;html=1;" vertex="1" parent="42EpbFQZqqC_yjip7hL5-5">
          <mxGeometry width="30" height="30" as="geometry">
            <mxRectangle width="30" height="30" as="alternateBounds" />
          </mxGeometry>
        </mxCell>
        <mxCell id="42EpbFQZqqC_yjip7hL5-7" value="No_Karyawan" style="shape=partialRectangle;connectable=0;fillColor=none;top=0;left=0;bottom=0;right=0;align=left;spacingLeft=6;fontStyle=5;overflow=hidden;whiteSpace=wrap;html=1;" vertex="1" parent="42EpbFQZqqC_yjip7hL5-5">
          <mxGeometry x="30" width="290" height="30" as="geometry">
            <mxRectangle width="290" height="30" as="alternateBounds" />
          </mxGeometry>
        </mxCell>
        <mxCell id="42EpbFQZqqC_yjip7hL5-29" value="" style="shape=tableRow;horizontal=0;startSize=0;swimlaneHead=0;swimlaneBody=0;fillColor=none;collapsible=0;dropTarget=0;points=[[0,0.5],[1,0.5]];portConstraint=eastwest;top=0;left=0;right=0;bottom=0;" vertex="1" parent="42EpbFQZqqC_yjip7hL5-4">
          <mxGeometry y="60" width="320" height="30" as="geometry" />
        </mxCell>
        <mxCell id="42EpbFQZqqC_yjip7hL5-30" value="" style="shape=partialRectangle;connectable=0;fillColor=none;top=0;left=0;bottom=0;right=0;editable=1;overflow=hidden;whiteSpace=wrap;html=1;" vertex="1" parent="42EpbFQZqqC_yjip7hL5-29">
          <mxGeometry width="30" height="30" as="geometry">
            <mxRectangle width="30" height="30" as="alternateBounds" />
          </mxGeometry>
        </mxCell>
        <mxCell id="42EpbFQZqqC_yjip7hL5-31" value="Nama" style="shape=partialRectangle;connectable=0;fillColor=none;top=0;left=0;bottom=0;right=0;align=left;spacingLeft=6;overflow=hidden;whiteSpace=wrap;html=1;" vertex="1" parent="42EpbFQZqqC_yjip7hL5-29">
          <mxGeometry x="30" width="290" height="30" as="geometry">
            <mxRectangle width="290" height="30" as="alternateBounds" />
          </mxGeometry>
        </mxCell>
        <mxCell id="42EpbFQZqqC_yjip7hL5-8" value="" style="shape=tableRow;horizontal=0;startSize=0;swimlaneHead=0;swimlaneBody=0;fillColor=none;collapsible=0;dropTarget=0;points=[[0,0.5],[1,0.5]];portConstraint=eastwest;top=0;left=0;right=0;bottom=0;" vertex="1" parent="42EpbFQZqqC_yjip7hL5-4">
          <mxGeometry y="90" width="320" height="30" as="geometry" />
        </mxCell>
        <mxCell id="42EpbFQZqqC_yjip7hL5-9" value="FK" style="shape=partialRectangle;connectable=0;fillColor=none;top=0;left=0;bottom=0;right=0;editable=1;overflow=hidden;whiteSpace=wrap;html=1;" vertex="1" parent="42EpbFQZqqC_yjip7hL5-8">
          <mxGeometry width="30" height="30" as="geometry">
            <mxRectangle width="30" height="30" as="alternateBounds" />
          </mxGeometry>
        </mxCell>
        <mxCell id="42EpbFQZqqC_yjip7hL5-10" value="Melayani" style="shape=partialRectangle;connectable=0;fillColor=none;top=0;left=0;bottom=0;right=0;align=left;spacingLeft=6;overflow=hidden;whiteSpace=wrap;html=1;" vertex="1" parent="42EpbFQZqqC_yjip7hL5-8">
          <mxGeometry x="30" width="290" height="30" as="geometry">
            <mxRectangle width="290" height="30" as="alternateBounds" />
          </mxGeometry>
        </mxCell>
        <mxCell id="42EpbFQZqqC_yjip7hL5-17" value="&lt;font size=&quot;3&quot;&gt;VARCHAR(16)&lt;/font&gt;" style="rounded=0;whiteSpace=wrap;html=1;align=left;" vertex="1" parent="1">
          <mxGeometry x="-440" y="-1490" width="160" height="30" as="geometry" />
        </mxCell>
        <mxCell id="42EpbFQZqqC_yjip7hL5-19" value="&lt;font size=&quot;3&quot;&gt;VARCHAR(50)&lt;/font&gt;" style="rounded=0;whiteSpace=wrap;html=1;align=left;" vertex="1" parent="1">
          <mxGeometry x="-440" y="-1460" width="160" height="30" as="geometry" />
        </mxCell>
        <mxCell id="42EpbFQZqqC_yjip7hL5-20" value="Customer" style="shape=table;startSize=30;container=1;collapsible=1;childLayout=tableLayout;fixedRows=1;rowLines=0;fontStyle=1;align=center;resizeLast=1;html=1;" vertex="1" parent="1">
          <mxGeometry x="-600" y="-1360" width="320" height="90" as="geometry" />
        </mxCell>
        <mxCell id="42EpbFQZqqC_yjip7hL5-21" value="" style="shape=tableRow;horizontal=0;startSize=0;swimlaneHead=0;swimlaneBody=0;fillColor=none;collapsible=0;dropTarget=0;points=[[0,0.5],[1,0.5]];portConstraint=eastwest;top=0;left=0;right=0;bottom=1;" vertex="1" parent="42EpbFQZqqC_yjip7hL5-20">
          <mxGeometry y="30" width="320" height="30" as="geometry" />
        </mxCell>
        <mxCell id="42EpbFQZqqC_yjip7hL5-22" value="PK" style="shape=partialRectangle;connectable=0;fillColor=none;top=0;left=0;bottom=0;right=0;fontStyle=1;overflow=hidden;whiteSpace=wrap;html=1;" vertex="1" parent="42EpbFQZqqC_yjip7hL5-21">
          <mxGeometry width="30" height="30" as="geometry">
            <mxRectangle width="30" height="30" as="alternateBounds" />
          </mxGeometry>
        </mxCell>
        <mxCell id="42EpbFQZqqC_yjip7hL5-23" value="No_Customer" style="shape=partialRectangle;connectable=0;fillColor=none;top=0;left=0;bottom=0;right=0;align=left;spacingLeft=6;fontStyle=5;overflow=hidden;whiteSpace=wrap;html=1;" vertex="1" parent="42EpbFQZqqC_yjip7hL5-21">
          <mxGeometry x="30" width="290" height="30" as="geometry">
            <mxRectangle width="290" height="30" as="alternateBounds" />
          </mxGeometry>
        </mxCell>
        <mxCell id="42EpbFQZqqC_yjip7hL5-24" value="" style="shape=tableRow;horizontal=0;startSize=0;swimlaneHead=0;swimlaneBody=0;fillColor=none;collapsible=0;dropTarget=0;points=[[0,0.5],[1,0.5]];portConstraint=eastwest;top=0;left=0;right=0;bottom=0;" vertex="1" parent="42EpbFQZqqC_yjip7hL5-20">
          <mxGeometry y="60" width="320" height="30" as="geometry" />
        </mxCell>
        <mxCell id="42EpbFQZqqC_yjip7hL5-25" value="" style="shape=partialRectangle;connectable=0;fillColor=none;top=0;left=0;bottom=0;right=0;editable=1;overflow=hidden;whiteSpace=wrap;html=1;" vertex="1" parent="42EpbFQZqqC_yjip7hL5-24">
          <mxGeometry width="30" height="30" as="geometry">
            <mxRectangle width="30" height="30" as="alternateBounds" />
          </mxGeometry>
        </mxCell>
        <mxCell id="42EpbFQZqqC_yjip7hL5-26" value="Nama" style="shape=partialRectangle;connectable=0;fillColor=none;top=0;left=0;bottom=0;right=0;align=left;spacingLeft=6;overflow=hidden;whiteSpace=wrap;html=1;" vertex="1" parent="42EpbFQZqqC_yjip7hL5-24">
          <mxGeometry x="30" width="290" height="30" as="geometry">
            <mxRectangle width="290" height="30" as="alternateBounds" />
          </mxGeometry>
        </mxCell>
        <mxCell id="42EpbFQZqqC_yjip7hL5-27" value="&lt;font size=&quot;3&quot;&gt;VARCHAR(16)&lt;/font&gt;" style="rounded=0;whiteSpace=wrap;html=1;align=left;" vertex="1" parent="1">
          <mxGeometry x="-440" y="-1330" width="160" height="30" as="geometry" />
        </mxCell>
        <mxCell id="42EpbFQZqqC_yjip7hL5-28" value="&lt;font size=&quot;3&quot;&gt;VARCHAR(50)&lt;/font&gt;" style="rounded=0;whiteSpace=wrap;html=1;align=left;" vertex="1" parent="1">
          <mxGeometry x="-440" y="-1300" width="160" height="30" as="geometry" />
        </mxCell>
        <mxCell id="42EpbFQZqqC_yjip7hL5-33" value="&lt;font size=&quot;3&quot;&gt;VARCHAR(16)&lt;/font&gt;" style="rounded=0;whiteSpace=wrap;html=1;align=left;" vertex="1" parent="1">
          <mxGeometry x="-440" y="-1430" width="160" height="30" as="geometry" />
        </mxCell>
        <mxCell id="42EpbFQZqqC_yjip7hL5-35" value="" style="edgeStyle=orthogonalEdgeStyle;fontSize=12;html=1;endArrow=ERmany;rounded=0;entryX=0;entryY=0.5;entryDx=0;entryDy=0;exitX=0;exitY=0.5;exitDx=0;exitDy=0;curved=1;" edge="1" parent="1" source="42EpbFQZqqC_yjip7hL5-8" target="42EpbFQZqqC_yjip7hL5-21">
          <mxGeometry width="100" height="100" relative="1" as="geometry">
            <mxPoint x="-910" y="-1190" as="sourcePoint" />
            <mxPoint x="-810" y="-1290" as="targetPoint" />
            <Array as="points">
              <mxPoint x="-640" y="-1415" />
              <mxPoint x="-640" y="-1315" />
            </Array>
          </mxGeometry>
        </mxCell>
        <mxCell id="42EpbFQZqqC_yjip7hL5-36" value="&lt;span style=&quot;font-size: 18px;&quot;&gt;Normalized Tabel&lt;/span&gt;" style="text;html=1;align=center;verticalAlign=middle;whiteSpace=wrap;rounded=0;" vertex="1" parent="1">
          <mxGeometry x="-160" y="-1560" width="200" height="30" as="geometry" />
        </mxCell>
        <mxCell id="42EpbFQZqqC_yjip7hL5-37" value="No Karyawan" style="swimlane;fontStyle=0;childLayout=stackLayout;horizontal=1;startSize=30;horizontalStack=0;resizeParent=1;resizeParentMax=0;resizeLast=0;collapsible=1;marginBottom=0;whiteSpace=wrap;html=1;" vertex="1" parent="1">
          <mxGeometry x="-160" y="-1520" width="140" height="150" as="geometry" />
        </mxCell>
        <mxCell id="42EpbFQZqqC_yjip7hL5-38" value="1" style="text;strokeColor=none;fillColor=none;align=left;verticalAlign=middle;spacingLeft=4;spacingRight=4;overflow=hidden;points=[[0,0.5],[1,0.5]];portConstraint=eastwest;rotatable=0;whiteSpace=wrap;html=1;" vertex="1" parent="42EpbFQZqqC_yjip7hL5-37">
          <mxGeometry y="30" width="140" height="30" as="geometry" />
        </mxCell>
        <mxCell id="42EpbFQZqqC_yjip7hL5-39" value="3" style="text;strokeColor=none;fillColor=none;align=left;verticalAlign=middle;spacingLeft=4;spacingRight=4;overflow=hidden;points=[[0,0.5],[1,0.5]];portConstraint=eastwest;rotatable=0;whiteSpace=wrap;html=1;" vertex="1" parent="42EpbFQZqqC_yjip7hL5-37">
          <mxGeometry y="60" width="140" height="30" as="geometry" />
        </mxCell>
        <mxCell id="42EpbFQZqqC_yjip7hL5-46" value="5" style="text;strokeColor=none;fillColor=none;align=left;verticalAlign=middle;spacingLeft=4;spacingRight=4;overflow=hidden;points=[[0,0.5],[1,0.5]];portConstraint=eastwest;rotatable=0;whiteSpace=wrap;html=1;" vertex="1" parent="42EpbFQZqqC_yjip7hL5-37">
          <mxGeometry y="90" width="140" height="30" as="geometry" />
        </mxCell>
        <mxCell id="42EpbFQZqqC_yjip7hL5-40" value="6" style="text;strokeColor=none;fillColor=none;align=left;verticalAlign=middle;spacingLeft=4;spacingRight=4;overflow=hidden;points=[[0,0.5],[1,0.5]];portConstraint=eastwest;rotatable=0;whiteSpace=wrap;html=1;" vertex="1" parent="42EpbFQZqqC_yjip7hL5-37">
          <mxGeometry y="120" width="140" height="30" as="geometry" />
        </mxCell>
        <mxCell id="42EpbFQZqqC_yjip7hL5-41" value="Nama Karyawan" style="swimlane;fontStyle=0;childLayout=stackLayout;horizontal=1;startSize=30;horizontalStack=0;resizeParent=1;resizeParentMax=0;resizeLast=0;collapsible=1;marginBottom=0;whiteSpace=wrap;html=1;" vertex="1" parent="1">
          <mxGeometry x="-20" y="-1520" width="140" height="150" as="geometry" />
        </mxCell>
        <mxCell id="42EpbFQZqqC_yjip7hL5-42" value="Andi" style="text;strokeColor=none;fillColor=none;align=left;verticalAlign=middle;spacingLeft=4;spacingRight=4;overflow=hidden;points=[[0,0.5],[1,0.5]];portConstraint=eastwest;rotatable=0;whiteSpace=wrap;html=1;" vertex="1" parent="42EpbFQZqqC_yjip7hL5-41">
          <mxGeometry y="30" width="140" height="30" as="geometry" />
        </mxCell>
        <mxCell id="42EpbFQZqqC_yjip7hL5-43" value="Dewi" style="text;strokeColor=none;fillColor=none;align=left;verticalAlign=middle;spacingLeft=4;spacingRight=4;overflow=hidden;points=[[0,0.5],[1,0.5]];portConstraint=eastwest;rotatable=0;whiteSpace=wrap;html=1;" vertex="1" parent="42EpbFQZqqC_yjip7hL5-41">
          <mxGeometry y="60" width="140" height="30" as="geometry" />
        </mxCell>
        <mxCell id="42EpbFQZqqC_yjip7hL5-44" value="Mina" style="text;strokeColor=none;fillColor=none;align=left;verticalAlign=middle;spacingLeft=4;spacingRight=4;overflow=hidden;points=[[0,0.5],[1,0.5]];portConstraint=eastwest;rotatable=0;whiteSpace=wrap;html=1;" vertex="1" parent="42EpbFQZqqC_yjip7hL5-41">
          <mxGeometry y="90" width="140" height="30" as="geometry" />
        </mxCell>
        <mxCell id="42EpbFQZqqC_yjip7hL5-45" value="Luluk" style="text;strokeColor=none;fillColor=none;align=left;verticalAlign=middle;spacingLeft=4;spacingRight=4;overflow=hidden;points=[[0,0.5],[1,0.5]];portConstraint=eastwest;rotatable=0;whiteSpace=wrap;html=1;" vertex="1" parent="42EpbFQZqqC_yjip7hL5-41">
          <mxGeometry y="120" width="140" height="30" as="geometry" />
        </mxCell>
        <mxCell id="42EpbFQZqqC_yjip7hL5-47" value="No Customer" style="swimlane;fontStyle=0;childLayout=stackLayout;horizontal=1;startSize=30;horizontalStack=0;resizeParent=1;resizeParentMax=0;resizeLast=0;collapsible=1;marginBottom=0;whiteSpace=wrap;html=1;" vertex="1" parent="1">
          <mxGeometry x="320" y="-1520" width="140" height="270" as="geometry" />
        </mxCell>
        <mxCell id="42EpbFQZqqC_yjip7hL5-48" value="11" style="text;strokeColor=none;fillColor=none;align=left;verticalAlign=middle;spacingLeft=4;spacingRight=4;overflow=hidden;points=[[0,0.5],[1,0.5]];portConstraint=eastwest;rotatable=0;whiteSpace=wrap;html=1;" vertex="1" parent="42EpbFQZqqC_yjip7hL5-47">
          <mxGeometry y="30" width="140" height="30" as="geometry" />
        </mxCell>
        <mxCell id="42EpbFQZqqC_yjip7hL5-62" value="11" style="text;strokeColor=none;fillColor=none;align=left;verticalAlign=middle;spacingLeft=4;spacingRight=4;overflow=hidden;points=[[0,0.5],[1,0.5]];portConstraint=eastwest;rotatable=0;whiteSpace=wrap;html=1;" vertex="1" parent="42EpbFQZqqC_yjip7hL5-47">
          <mxGeometry y="60" width="140" height="30" as="geometry" />
        </mxCell>
        <mxCell id="42EpbFQZqqC_yjip7hL5-49" value="12" style="text;strokeColor=none;fillColor=none;align=left;verticalAlign=middle;spacingLeft=4;spacingRight=4;overflow=hidden;points=[[0,0.5],[1,0.5]];portConstraint=eastwest;rotatable=0;whiteSpace=wrap;html=1;" vertex="1" parent="42EpbFQZqqC_yjip7hL5-47">
          <mxGeometry y="90" width="140" height="30" as="geometry" />
        </mxCell>
        <mxCell id="42EpbFQZqqC_yjip7hL5-50" value="12" style="text;strokeColor=none;fillColor=none;align=left;verticalAlign=middle;spacingLeft=4;spacingRight=4;overflow=hidden;points=[[0,0.5],[1,0.5]];portConstraint=eastwest;rotatable=0;whiteSpace=wrap;html=1;" vertex="1" parent="42EpbFQZqqC_yjip7hL5-47">
          <mxGeometry y="120" width="140" height="30" as="geometry" />
        </mxCell>
        <mxCell id="42EpbFQZqqC_yjip7hL5-51" value="13" style="text;strokeColor=none;fillColor=none;align=left;verticalAlign=middle;spacingLeft=4;spacingRight=4;overflow=hidden;points=[[0,0.5],[1,0.5]];portConstraint=eastwest;rotatable=0;whiteSpace=wrap;html=1;" vertex="1" parent="42EpbFQZqqC_yjip7hL5-47">
          <mxGeometry y="150" width="140" height="30" as="geometry" />
        </mxCell>
        <mxCell id="42EpbFQZqqC_yjip7hL5-70" value="14" style="text;strokeColor=none;fillColor=none;align=left;verticalAlign=middle;spacingLeft=4;spacingRight=4;overflow=hidden;points=[[0,0.5],[1,0.5]];portConstraint=eastwest;rotatable=0;whiteSpace=wrap;html=1;" vertex="1" parent="42EpbFQZqqC_yjip7hL5-47">
          <mxGeometry y="180" width="140" height="30" as="geometry" />
        </mxCell>
        <mxCell id="42EpbFQZqqC_yjip7hL5-71" value="15" style="text;strokeColor=none;fillColor=none;align=left;verticalAlign=middle;spacingLeft=4;spacingRight=4;overflow=hidden;points=[[0,0.5],[1,0.5]];portConstraint=eastwest;rotatable=0;whiteSpace=wrap;html=1;" vertex="1" parent="42EpbFQZqqC_yjip7hL5-47">
          <mxGeometry y="210" width="140" height="30" as="geometry" />
        </mxCell>
        <mxCell id="42EpbFQZqqC_yjip7hL5-69" value="16" style="text;strokeColor=none;fillColor=none;align=left;verticalAlign=middle;spacingLeft=4;spacingRight=4;overflow=hidden;points=[[0,0.5],[1,0.5]];portConstraint=eastwest;rotatable=0;whiteSpace=wrap;html=1;" vertex="1" parent="42EpbFQZqqC_yjip7hL5-47">
          <mxGeometry y="240" width="140" height="30" as="geometry" />
        </mxCell>
        <mxCell id="42EpbFQZqqC_yjip7hL5-52" value="Nama Customer" style="swimlane;fontStyle=0;childLayout=stackLayout;horizontal=1;startSize=30;horizontalStack=0;resizeParent=1;resizeParentMax=0;resizeLast=0;collapsible=1;marginBottom=0;whiteSpace=wrap;html=1;" vertex="1" parent="1">
          <mxGeometry x="460" y="-1520" width="140" height="270" as="geometry" />
        </mxCell>
        <mxCell id="42EpbFQZqqC_yjip7hL5-53" value="Firdaus" style="text;strokeColor=none;fillColor=none;align=left;verticalAlign=middle;spacingLeft=4;spacingRight=4;overflow=hidden;points=[[0,0.5],[1,0.5]];portConstraint=eastwest;rotatable=0;whiteSpace=wrap;html=1;" vertex="1" parent="42EpbFQZqqC_yjip7hL5-52">
          <mxGeometry y="30" width="140" height="30" as="geometry" />
        </mxCell>
        <mxCell id="42EpbFQZqqC_yjip7hL5-54" value="Santika" style="text;strokeColor=none;fillColor=none;align=left;verticalAlign=middle;spacingLeft=4;spacingRight=4;overflow=hidden;points=[[0,0.5],[1,0.5]];portConstraint=eastwest;rotatable=0;whiteSpace=wrap;html=1;" vertex="1" parent="42EpbFQZqqC_yjip7hL5-52">
          <mxGeometry y="60" width="140" height="30" as="geometry" />
        </mxCell>
        <mxCell id="42EpbFQZqqC_yjip7hL5-55" value="Cici" style="text;strokeColor=none;fillColor=none;align=left;verticalAlign=middle;spacingLeft=4;spacingRight=4;overflow=hidden;points=[[0,0.5],[1,0.5]];portConstraint=eastwest;rotatable=0;whiteSpace=wrap;html=1;" vertex="1" parent="42EpbFQZqqC_yjip7hL5-52">
          <mxGeometry y="90" width="140" height="30" as="geometry" />
        </mxCell>
        <mxCell id="42EpbFQZqqC_yjip7hL5-56" value="Hilda" style="text;strokeColor=none;fillColor=none;align=left;verticalAlign=middle;spacingLeft=4;spacingRight=4;overflow=hidden;points=[[0,0.5],[1,0.5]];portConstraint=eastwest;rotatable=0;whiteSpace=wrap;html=1;" vertex="1" parent="42EpbFQZqqC_yjip7hL5-52">
          <mxGeometry y="120" width="140" height="30" as="geometry" />
        </mxCell>
        <mxCell id="42EpbFQZqqC_yjip7hL5-65" value="Husna" style="text;strokeColor=none;fillColor=none;align=left;verticalAlign=middle;spacingLeft=4;spacingRight=4;overflow=hidden;points=[[0,0.5],[1,0.5]];portConstraint=eastwest;rotatable=0;whiteSpace=wrap;html=1;" vertex="1" parent="42EpbFQZqqC_yjip7hL5-52">
          <mxGeometry y="150" width="140" height="30" as="geometry" />
        </mxCell>
        <mxCell id="42EpbFQZqqC_yjip7hL5-66" value="Farah" style="text;strokeColor=none;fillColor=none;align=left;verticalAlign=middle;spacingLeft=4;spacingRight=4;overflow=hidden;points=[[0,0.5],[1,0.5]];portConstraint=eastwest;rotatable=0;whiteSpace=wrap;html=1;" vertex="1" parent="42EpbFQZqqC_yjip7hL5-52">
          <mxGeometry y="180" width="140" height="30" as="geometry" />
        </mxCell>
        <mxCell id="42EpbFQZqqC_yjip7hL5-67" value="Gunawan" style="text;strokeColor=none;fillColor=none;align=left;verticalAlign=middle;spacingLeft=4;spacingRight=4;overflow=hidden;points=[[0,0.5],[1,0.5]];portConstraint=eastwest;rotatable=0;whiteSpace=wrap;html=1;" vertex="1" parent="42EpbFQZqqC_yjip7hL5-52">
          <mxGeometry y="210" width="140" height="30" as="geometry" />
        </mxCell>
        <mxCell id="42EpbFQZqqC_yjip7hL5-68" value="Raffi" style="text;strokeColor=none;fillColor=none;align=left;verticalAlign=middle;spacingLeft=4;spacingRight=4;overflow=hidden;points=[[0,0.5],[1,0.5]];portConstraint=eastwest;rotatable=0;whiteSpace=wrap;html=1;" vertex="1" parent="42EpbFQZqqC_yjip7hL5-52">
          <mxGeometry y="240" width="140" height="30" as="geometry" />
        </mxCell>
        <mxCell id="42EpbFQZqqC_yjip7hL5-77" value="No Karyawan" style="swimlane;fontStyle=0;childLayout=stackLayout;horizontal=1;startSize=30;horizontalStack=0;resizeParent=1;resizeParentMax=0;resizeLast=0;collapsible=1;marginBottom=0;whiteSpace=wrap;html=1;" vertex="1" parent="1">
          <mxGeometry x="180" y="-1520" width="140" height="270" as="geometry" />
        </mxCell>
        <mxCell id="42EpbFQZqqC_yjip7hL5-78" value="1" style="text;strokeColor=none;fillColor=none;align=left;verticalAlign=middle;spacingLeft=4;spacingRight=4;overflow=hidden;points=[[0,0.5],[1,0.5]];portConstraint=eastwest;rotatable=0;whiteSpace=wrap;html=1;" vertex="1" parent="42EpbFQZqqC_yjip7hL5-77">
          <mxGeometry y="30" width="140" height="30" as="geometry" />
        </mxCell>
        <mxCell id="42EpbFQZqqC_yjip7hL5-79" value="1" style="text;strokeColor=none;fillColor=none;align=left;verticalAlign=middle;spacingLeft=4;spacingRight=4;overflow=hidden;points=[[0,0.5],[1,0.5]];portConstraint=eastwest;rotatable=0;whiteSpace=wrap;html=1;" vertex="1" parent="42EpbFQZqqC_yjip7hL5-77">
          <mxGeometry y="60" width="140" height="30" as="geometry" />
        </mxCell>
        <mxCell id="42EpbFQZqqC_yjip7hL5-80" value="1" style="text;strokeColor=none;fillColor=none;align=left;verticalAlign=middle;spacingLeft=4;spacingRight=4;overflow=hidden;points=[[0,0.5],[1,0.5]];portConstraint=eastwest;rotatable=0;whiteSpace=wrap;html=1;" vertex="1" parent="42EpbFQZqqC_yjip7hL5-77">
          <mxGeometry y="90" width="140" height="30" as="geometry" />
        </mxCell>
        <mxCell id="42EpbFQZqqC_yjip7hL5-81" value="1" style="text;strokeColor=none;fillColor=none;align=left;verticalAlign=middle;spacingLeft=4;spacingRight=4;overflow=hidden;points=[[0,0.5],[1,0.5]];portConstraint=eastwest;rotatable=0;whiteSpace=wrap;html=1;" vertex="1" parent="42EpbFQZqqC_yjip7hL5-77">
          <mxGeometry y="120" width="140" height="30" as="geometry" />
        </mxCell>
        <mxCell id="42EpbFQZqqC_yjip7hL5-82" value="3" style="text;strokeColor=none;fillColor=none;align=left;verticalAlign=middle;spacingLeft=4;spacingRight=4;overflow=hidden;points=[[0,0.5],[1,0.5]];portConstraint=eastwest;rotatable=0;whiteSpace=wrap;html=1;" vertex="1" parent="42EpbFQZqqC_yjip7hL5-77">
          <mxGeometry y="150" width="140" height="30" as="geometry" />
        </mxCell>
        <mxCell id="42EpbFQZqqC_yjip7hL5-83" value="3" style="text;strokeColor=none;fillColor=none;align=left;verticalAlign=middle;spacingLeft=4;spacingRight=4;overflow=hidden;points=[[0,0.5],[1,0.5]];portConstraint=eastwest;rotatable=0;whiteSpace=wrap;html=1;" vertex="1" parent="42EpbFQZqqC_yjip7hL5-77">
          <mxGeometry y="180" width="140" height="30" as="geometry" />
        </mxCell>
        <mxCell id="42EpbFQZqqC_yjip7hL5-84" value="5" style="text;strokeColor=none;fillColor=none;align=left;verticalAlign=middle;spacingLeft=4;spacingRight=4;overflow=hidden;points=[[0,0.5],[1,0.5]];portConstraint=eastwest;rotatable=0;whiteSpace=wrap;html=1;" vertex="1" parent="42EpbFQZqqC_yjip7hL5-77">
          <mxGeometry y="210" width="140" height="30" as="geometry" />
        </mxCell>
        <mxCell id="42EpbFQZqqC_yjip7hL5-85" value="6" style="text;strokeColor=none;fillColor=none;align=left;verticalAlign=middle;spacingLeft=4;spacingRight=4;overflow=hidden;points=[[0,0.5],[1,0.5]];portConstraint=eastwest;rotatable=0;whiteSpace=wrap;html=1;" vertex="1" parent="42EpbFQZqqC_yjip7hL5-77">
          <mxGeometry y="240" width="140" height="30" as="geometry" />
        </mxCell>
      </root>
    </mxGraphModel>
  </diagram>
  <diagram id="MzCOTTwPircE0L37YmwP" name="Normalisasi 2NF &amp; 3NF">
    <mxGraphModel dx="984" dy="467" grid="1" gridSize="10" guides="1" tooltips="1" connect="1" arrows="1" fold="1" page="1" pageScale="1" pageWidth="1169" pageHeight="827" math="0" shadow="0">
      <root>
        <mxCell id="0" />
        <mxCell id="1" parent="0" />
      </root>
    </mxGraphModel>
  </diagram>
  <diagram id="rfaI8LEHiLJgV_Gbf9j2" name="Page-3">
    <mxGraphModel grid="1" page="1" gridSize="10" guides="1" tooltips="1" connect="1" arrows="1" fold="1" pageScale="1" pageWidth="1169" pageHeight="827" math="0" shadow="0">
      <root>
        <mxCell id="0" />
        <mxCell id="1" parent="0" />
      </root>
    </mxGraphModel>
  </diagram>
</mxfile>
